999
Dxf file generated by netDxf http://netdxf.codeplex.com, Copyright(C) 2014 Daniel Carvajal, Licensed under LGPL
0
SECTION
2
HEADER
9
$ACADVER
1
AC1024
9
$DWGCODEPAGE
3
ANSI_1200
9
$LASTSAVEDBY
1
Admin
9
$HANDSEED
5
2B
9
$ANGBASE
50
0.0
9
$ANGDIR
70
0
9
$ATTMODE
70
1
9
$AUNITS
70
0
9
$AUPREC
70
0
9
$CECOLOR
62
256
9
$CELTSCALE
40
1.0
9
$CELTYPE
6
ByLayer
9
$CELWEIGHT
370
-1
9
$CLAYER
8
0
9
$CMLJUST
70
0
9
$CMLSCALE
40
20.0
9
$CMLSTYLE
2
Standard
9
$DIMSTYLE
2
Standard
9
$TEXTSIZE
40
2.5
9
$TEXTSTYLE
7
Standard
9
$LUNITS
70
2
9
$LUPREC
70
4
9
$EXTNAMES
290
1
9
$INSBASE
10
0.0
20
0.0
30
0.0
9
$INSUNITS
70
0
9
$LTSCALE
40
1.0
9
$LWDISPLAY
290
0
9
$PDMODE
70
0
9
$PDSIZE
40
0.0
9
$PLINEGEN
70
0
9
$TDCREATE
40
2458682.42496388
9
$TDUCREATE
40
2458682.00829721
9
$TDUPDATE
40
2458682.42496388
9
$TDUUPDATE
40
2458682.00829721
9
$TDINDWG
40
0.0
0
ENDSEC
0
SECTION
2
CLASSES
0
CLASS
1
RASTERVARIABLES
2
AcDbRasterVariables
3
ISM
90
0
91
1
280
0
281
0
0
ENDSEC
0
SECTION
2
TABLES
0
TABLE
2
APPID
5
3
330
0
100
AcDbSymbolTable
70
2
0
APPID
5
14
330
3
100
AcDbSymbolTableRecord
100
AcDbRegAppTableRecord
2
ACAD
70
0
0
APPID
5
25
330
3
100
AcDbSymbolTableRecord
100
AcDbRegAppTableRecord
2
AcCmTransparency
70
0
0
ENDTAB
0
TABLE
2
VPORT
5
1
330
0
100
AcDbSymbolTable
70
1
0
VPORT
5
E
330
1
100
AcDbSymbolTableRecord
100
AcDbViewportTableRecord
2
*Active
70
0
10
0.0
20
0.0
11
1.0
21
1.0
12
-1.0
22
1.0
13
0.0
23
0.0
14
0.5
24
0.5
15
10.0
25
10.0
16
0.0
26
0.0
36
1.0
17
0.0
27
0.0
37
0.0
0
ENDTAB
0
TABLE
2
LTYPE
5
5
330
0
100
AcDbSymbolTable
70
3
0
LTYPE
5
10
330
5
100
AcDbSymbolTableRecord
100
AcDbLinetypeTableRecord
70
0
2
Continuous
3
Solid line
72
65
73
0
40
0.0
0
LTYPE
5
11
330
5
100
AcDbSymbolTableRecord
100
AcDbLinetypeTableRecord
70
0
2
ByLayer
3

72
65
73
0
40
0.0
0
LTYPE
5
12
330
5
100
AcDbSymbolTableRecord
100
AcDbLinetypeTableRecord
70
0
2
ByBlock
3

72
65
73
0
40
0.0
0
ENDTAB
0
TABLE
2
LAYER
5
4
330
0
100
AcDbSymbolTable
70
2
0
LAYER
5
F
330
4
100
AcDbSymbolTableRecord
100
AcDbLayerTableRecord
2
0
70
0
62
7
6
Continuous
290
1
370
-3
390
0
0
LAYER
5
1E
330
4
100
AcDbSymbolTableRecord
100
AcDbLayerTableRecord
2
3DTerrain
70
0
62
7
6
Continuous
290
1
370
-3
390
0
0
ENDTAB
0
TABLE
2
STYLE
5
6
330
0
100
AcDbSymbolTable
70
1
0
STYLE
5
13
330
6
100
AcDbSymbolTableRecord
100
AcDbTextStyleTableRecord
2
Standard
3
simplex.shx
70
0
71
0
40
0.0
41
1.0
42
0.0
50
0.0
0
ENDTAB
0
TABLE
2
DIMSTYLE
5
7
330
0
100
AcDbSymbolTable
70
1
100
AcDbDimStyleTable
0
DIMSTYLE
105
15
330
7
100
AcDbSymbolTableRecord
100
AcDbDimStyleTableRecord
2
Standard
70
0
3
<>
40
1.0
41
0.18
42
0.0625
43
0.38
44
0.18
46
0.0
73
0
74
0
75
0
76
0
77
1
140
0.18
141
0.09
147
0.09
173
0
176
0
177
0
178
0
179
0
271
2
275
0
278
46
280
0
340
13
345
12
346
12
347
12
371
-2
372
-2
0
ENDTAB
0
TABLE
2
VIEW
5
2
330
0
100
AcDbSymbolTable
70
0
0
ENDTAB
0
TABLE
2
UCS
5
9
330
0
100
AcDbSymbolTable
70
0
0
ENDTAB
0
TABLE
2
BLOCK_RECORD
5
A
330
0
100
AcDbSymbolTable
70
2
0
BLOCK_RECORD
5
17
330
A
100
AcDbSymbolTableRecord
100
AcDbBlockTableRecord
2
*Model_Space
340
1B
0
BLOCK_RECORD
5
1F
330
A
100
AcDbSymbolTableRecord
100
AcDbBlockTableRecord
2
*Paper_Space
340
24
0
ENDTAB
0
ENDSEC
0
SECTION
2
BLOCKS
0
BLOCK
5
19
330
17
100
AcDbEntity
8
0
100
AcDbBlockBegin
2
*Model_Space
70
0
10
0.0
20
0.0
30
0.0
3
*Model_Space
0
ENDBLK
5
18
330
17
100
AcDbEntity
8
0
100
AcDbBlockEnd
0
BLOCK
5
21
330
1F
100
AcDbEntity
8
0
100
AcDbBlockBegin
2
*Paper_Space
70
0
10
0.0
20
0.0
30
0.0
3
*Paper_Space
0
ENDBLK
5
20
330
1F
100
AcDbEntity
8
0
100
AcDbBlockEnd
0
ENDSEC
0
SECTION
2
ENTITIES
0
MESH
5
1D
330
17
100
AcDbEntity
67
0
8
3DTerrain
62
230
420
16711808
6
ByLayer
370
25
48
1.0
60
0
100
AcDbSubDMesh
71
2
72
0
91
0
92
1028
10
805573.449147949
20
7678477.55517578
30
251.024937343933
10
805334.185773652
20
7678256.4121473
30
250.733883164306
10
805246.98287767
20
7678175.81346575
30
250.627804382186
10
805230.119553414
20
7678160.22726662
30
250.607290832957
10
805193.968366394
20
7678126.81394959
30
250.563314381854
10
805192.119254512
20
7678080.84460306
30
250.427076610944
10
805203.895223669
20
7678058.70954289
30
250.271108046021
10
805283.537801514
20
7678019.45931244
30
250.744044765941
10
805394.668001336
20
7678123.55055309
30
250.824881989343
10
805404.074031998
20
7678132.36080812
30
250.831724030509
10
805660.448598633
20
7678372.49667358
30
251.01821346498
10
805475.20229126
20
7678306.79602051
30
251.368286107038
10
805385.545064697
20
7678223.58425903
30
252.173702580375
10
805362.638311157
20
7678202.25115967
30
251.741943845404
10
805356.506337891
20
7678196.49952698
30
251.515913067238
10
805352.023504028
20
7678191.88903809
30
251.355212575447
10
805323.761174927
20
7678164.870224
30
250.90385747361
10
805290.432805786
20
7678133.40057373
30
250.596791422661
10
805278.707921753
20
7678122.33758545
30
250.822869132362
10
805271.268956909
20
7678115.54718018
30
250.885553658838
10
805263.729284058
20
7678109.33226013
30
250.909037272208
10
805253.284719238
20
7678101.15858459
30
250.845213617785
10
805240.651876221
20
7678092.44831848
30
250.67012588824
10
805226.938634644
20
7678083.883255
30
250.515790789457
10
805211.287786255
20
7678075.59370422
30
250.328711259457
10
805250.667852173
20
7678168.40646362
30
249.857239562561
10
805254.318425903
20
7678164.26855469
30
250.569185810984
10
805257.224172363
20
7678160.71252441
30
250.610481090294
10
805261.112783203
20
7678158.19953918
30
250.619543535096
10
805265.133931885
20
7678156.46459961
30
250.620734659433
10
805269.061177979
20
7678155.35131836
30
250.617909489647
10
805272.997503052
20
7678155.00404358
30
250.62896871171
10
805276.262639771
20
7678155.70202637
30
250.669377182727
10
805282.247792969
20
7678157.60246277
30
250.826473280174
10
805287.089559326
20
7678158.79342651
30
250.845913344482
10
805292.04465271
20
7678160.45114136
30
250.89428238748
10
805297.157735596
20
7678162.68412781
30
250.792145601042
10
805303.834615479
20
7678165.05987549
30
250.905144627815
10
805307.84505249
20
7678166.11611938
30
250.860434661409
10
805309.081807861
20
7678166.11047363
30
250.813604481425
10
805232.168370972
20
7678157.65605164
30
250.4144125265
10
805233.754987488
20
7678155.91990662
30
250.35847912516
10
805234.402364502
20
7678153.58068848
30
250.657179387073
10
805236.340795288
20
7678152.02949524
30
250.586030563626
10
805237.318151245
20
7678149.73506165
30
250.73577912049
10
805241.467901001
20
7678142.4962616
30
250.387665119328
10
805246.270742188
20
7678139.42079163
30
250.392275880195
10
805250.714269409
20
7678137.07409668
30
250.460681353904
10
805256.321355591
20
7678134.96278381
30
250.502166262131
10
805261.61067749
20
7678134.06108093
30
250.505086087471
10
805264.237462769
20
7678132.33273315
30
250.758362491945
10
805266.604116211
20
7678132.19584656
30
250.609643632614
10
805270.287099609
20
7678132.22027588
30
250.528494618269
10
805273.650686035
20
7678132.28039551
30
250.521276434659
10
805279.240880737
20
7678133.49504089
30
250.628291571804
10
805282.18590332
20
7678136.37559509
30
250.537878315192
10
805302.970586548
20
7678132.39576721
30
250.480698616579
10
805307.845525513
20
7678131.25028992
30
250.404900524496
10
805314.410756836
20
7678128.7620697
30
250.303862951283
10
805322.674550781
20
7678125.59144592
30
250.254122510923
10
805325.558706055
20
7678125.25285339
30
250.243245025833
10
805327.190236816
20
7678121.95475769
30
250.16895276909
10
805326.274404297
20
7678119.52085876
30
250.162788102532
10
805326.656362305
20
7678117.57980347
30
250.129702334023
10
805329.096791992
20
7678115.24209595
30
250.176397953946
10
805332.961583862
20
7678112.41699219
30
250.233210967975
10
805336.703450928
20
7678112.00559998
30
250.290479132448
10
805340.390508423
20
7678113.51359558
30
250.202441989404
10
805342.58699585
20
7678113.11987305
30
250.382247952814
10
805346.095159302
20
7678112.89956665
30
250.368595566403
10
805348.228673706
20
7678113.07339478
30
250.544314430022
10
805355.158651123
20
7678112.63095093
30
250.41057853095
10
805357.540090332
20
7678113.71839905
30
250.243647430192
10
805358.566930542
20
7678115.94444275
30
250.309733974852
10
805358.560964355
20
7678120.27972412
30
250.230015501287
10
805360.077550659
20
7678124.60055542
30
250.429204306431
10
805360.859746704
20
7678128.4977417
30
250.479054324491
10
805362.835454712
20
7678132.77001953
30
250.498106986164
10
805364.582616577
20
7678135.63262939
30
250.362708252951
10
805365.654805908
20
7678138.81439209
30
250.427279156459
10
805367.716054688
20
7678141.01278687
30
250.364708441332
10
805369.390615234
20
7678143.52757263
30
250.392185650197
10
805371.875386963
20
7678144.97364807
30
250.383162059734
10
805373.210317383
20
7678145.59761047
30
250.399690816377
10
805375.082906494
20
7678146.25175476
30
250.386606018657
10
805377.636373291
20
7678145.73114014
30
250.393195644834
10
805379.6556604
20
7678144.74017334
30
250.377198166595
10
805380.180013428
20
7678143.76077271
30
250.448862593055
10
805381.466573486
20
7678142.82307434
30
250.434100370792
10
805382.664296875
20
7678142.87007141
30
250.396053808829
10
805384.584157715
20
7678141.6118927
30
250.391303101336
10
805385.977498779
20
7678140.30014038
30
250.402672423662
10
805387.418691406
20
7678138.76951599
30
250.374720842248
10
805389.071035156
20
7678136.67572021
30
250.454123445406
10
805390.167775879
20
7678134.71548462
30
250.471519881612
10
805325.939107666
20
7678143.13882446
30
250.378157990838
10
805327.601918945
20
7678140.27113342
30
250.328812075546
10
805329.198720703
20
7678137.98124695
30
250.319200432784
10
805331.605779419
20
7678133.3387146
30
250.255483558723
10
805333.139745483
20
7678132.5118866
30
250.231638095374
10
805337.678579102
20
7678132.5670929
30
250.257038192968
10
805341.306051025
20
7678133.48150635
30
250.259396616013
10
805344.279302368
20
7678136.4216156
30
250.317262127524
10
805347.42003418
20
7678137.20542908
30
250.387172736649
10
805351.994832764
20
7678138.14851379
30
250.418480817544
10
805352.443425903
20
7678141.17616272
30
250.322325978125
10
805354.503873182
20
7678144.6217954
30
250.371044161229
10
805355.169118652
20
7678145.73426819
30
250.386773537536
10
805359.402776489
20
7678150.51911926
30
250.51357439261
10
805362.946889648
20
7678153.23376465
30
250.673319181334
10
805368.898092041
20
7678154.80612183
30
250.710308351869
10
805375.944509277
20
7678155.34921265
30
250.850265612668
10
805383.110494385
20
7678153.83892822
30
250.622150506182
10
805389.63097168
20
7678151.16885376
30
250.826562137183
10
805393.734334717
20
7678147.97384644
30
250.778242314989
10
805396.74739624
20
7678144.3694458
30
250.648230369745
10
805398.27159668
20
7678143.01127625
30
250.789727253035
10
805321.466695557
20
7678158.1133728
30
250.756375132736
10
805372.894735107
20
7678198.77861023
30
252.231319255006
10
805376.726369629
20
7678191.83065796
30
252.188590472183
10
805383.232930908
20
7678187.70199585
30
252.153541517995
10
805388.879140625
20
7678182.9434967
30
252.158902154744
10
805393.03456665
20
7678179.26716614
30
252.186512324029
10
805399.468190918
20
7678175.58866882
30
252.23526238151
10
805406.121297607
20
7678171.36616516
30
252.16356700035
10
805412.495870361
20
7678169.00491333
30
252.116614780927
10
805418.199025879
20
7678162.34373474
30
252.113411771311
10
805342.920568237
20
7678176.01480103
30
251.000009800161
10
805340.667684326
20
7678168.07580566
30
250.978501854112
10
805339.092138062
20
7678161.31546021
30
251.062625415866
10
805337.931844482
20
7678154.66455078
30
250.826109636952
10
805342.609319458
20
7678147.47323608
30
250.51938116884
10
805349.297521362
20
7678144.66116333
30
250.411402374893
10
805298.638768921
20
7678212.78900146
30
251.100413516399
10
805309.91852356
20
7678202.86497498
30
251.11772066394
10
805316.6400354
20
7678194.40391541
30
251.085768384234
10
805325.163442383
20
7678188.16996765
30
251.007266176575
10
805327.901173374
20
7678186.12120941
30
251.242704010447
10
805281.109990845
20
7678200.21017456
30
250.903853638285
10
805287.583471069
20
7678192.97836304
30
251.030115919178
10
805293.816549072
20
7678181.55490112
30
251.032980690779
10
805300.219869385
20
7678176.44577026
30
250.934531299293
10
805306.21048523
20
7678172.07093811
30
251.029437511964
10
805311.395505212
20
7678170.38601698
30
251.003659346921
10
805276.871572266
20
7678167.4876709
30
251.58854577537
10
805288.154241333
20
7678166.09205627
30
250.594828731288
10
805293.905507813
20
7678167.98527527
30
250.97901831077
10
805273.782529916
20
7678101.42023566
30
251.007100899451
10
805286.967595825
20
7678095.38613892
30
251.163654043252
10
805312.342565308
20
7678091.00140381
30
251.539917820493
10
805327.528768311
20
7678084.63790894
30
251.545818352887
10
805333.278890381
20
7678077.52629852
30
251.521897909598
10
805254.166259446
20
7678117.72033104
30
251.153714637021
10
805240.146810303
20
7678126.13734436
30
251.155731812342
10
805225.908506165
20
7678132.10012817
30
250.624766999513
10
805213.317769775
20
7678139.11907959
30
250.800525201719
10
805352.309865723
20
7678211.85272217
30
251.951526431663
10
805346.622075806
20
7678223.86373901
30
252.094631359838
10
805342.885732422
20
7678234.87194824
30
252.272918841331
10
805338.927541504
20
7678244.0703125
30
252.149844850182
10
805382.119448715
20
7678237.45899773
30
252.19424592983
10
805375.62114502
20
7678238.64376831
30
252.264880869066
10
805364.376333008
20
7678239.99594116
30
252.239955215254
10
805350.86333252
20
7678243.64257813
30
252.211655939206
10
805344.188100586
20
7678244.15957642
30
252.18553070916
10
805352.795623815
20
7678210.15717765
30
251.900642923797
10
805347.768422852
20
7678262.95227051
30
252.172619117718
10
805348.061818848
20
7678260.10296631
30
252.217385831624
10
805360.148549805
20
7678255.27157593
30
252.225643320539
10
805381.331899414
20
7678253.60995483
30
252.277840399522
10
805389.269155273
20
7678251.40979004
30
252.269519685969
10
805392.664285547
20
7678247.24576541
30
252.267716543617
10
805383.123220215
20
7678276.75006104
30
252.245781344432
10
805405.525472412
20
7678279.14697266
30
252.26291194273
10
805415.637349854
20
7678279.3092041
30
252.232121148561
10
805420.85753418
20
7678277.89266968
30
252.171644348449
10
805423.724991553
20
7678276.07351481
30
252.176984011562
10
805444.871937552
20
7678261.59203145
30
252.166700082563
10
805447.728109131
20
7678254.6003418
30
252.174875209884
10
805458.109029541
20
7678253.16271973
30
252.156840716446
10
805457.873372803
20
7678246.621521
30
252.16075965094
10
805464.391378174
20
7678237.12020874
30
252.136019616614
10
805469.074025879
20
7678225.48959351
30
252.080354528188
10
805481.407064209
20
7678207.16847229
30
251.964824322866
10
805459.753591309
20
7678370.1401062
30
251.524271195067
10
805458.994863281
20
7678359.77841187
30
251.627153912582
10
805461.048330078
20
7678347.66137695
30
251.784702053641
10
805494.0049646
20
7678363.39822388
30
251.403523816749
10
805488.169545898
20
7678353.79101563
30
251.378869753567
10
805479.422994385
20
7678341.00482178
30
251.568908165005
10
805473.714467773
20
7678330.75039673
30
251.636561273258
10
805470.706929932
20
7678327.05609131
30
251.655497843877
10
805490.385732422
20
7678364.89678955
30
251.292774995672
10
805482.933553467
20
7678357.87036133
30
251.783416481945
10
805479.190755615
20
7678349.12524414
30
251.679923844798
10
805473.979696045
20
7678339.98422241
30
251.737430531853
10
805471.289663086
20
7678334.29135132
30
251.574457417513
10
805468.210408936
20
7678330.06613159
30
251.687388987028
10
805446.9424646
20
7678355.34710693
30
251.618423973478
10
805452.64269043
20
7678343.82446289
30
251.550063042773
10
805455.637563477
20
7678338.67050171
30
251.514225385742
10
805460.911031494
20
7678322.48309326
30
251.84755246087
10
805462.848165283
20
7678321.93713379
30
251.720733077238
10
805465.056844482
20
7678318.53616333
30
251.538789667017
10
805466.660900178
20
7678315.92261014
30
251.692072541358
10
805422.802694092
20
7678337.45223999
30
251.834106065029
10
805433.094991455
20
7678331.08636475
30
251.730372508469
10
805448.731435547
20
7678319.92330933
30
251.656170384351
10
805452.474569092
20
7678312.18200684
30
251.52386990455
10
805456.26491333
20
7678308.52557373
30
251.557111997373
10
805458.034282169
20
7678307.20788932
30
251.5984973393
10
805415.889577637
20
7678330.98257446
30
251.321505145978
10
805424.008596191
20
7678325.93911743
30
251.468882513674
10
805433.580098877
20
7678320.12460327
30
251.58646343801
10
805443.275777588
20
7678317.71530151
30
251.434912439039
10
805446.293294678
20
7678312.58218384
30
251.500536273431
10
805449.374746094
20
7678307.12011719
30
251.629377472812
10
805453.314926741
20
7678303.53622722
30
251.467306979264
10
805475.872736285
20
7678290.73549672
30
251.639389029246
10
805485.603231201
20
7678284.70526123
30
251.562640936873
10
805498.355428467
20
7678279.18188477
30
251.475633279373
10
805508.788320313
20
7678277.6914978
30
251.312379165758
10
805519.60765625
20
7678277.13244629
30
251.236626948047
10
805530.553762207
20
7678275.32571411
30
251.611449747118
10
805536.97395874
20
7678271.1869812
30
251.467067905791
10
805472.422398499
20
7678287.16188759
30
251.621602582056
10
805483.443837891
20
7678282.08410645
30
251.171325655778
10
805500.155324707
20
7678271.90377808
30
251.200669178209
10
805505.995809326
20
7678272.6317749
30
251.305405274825
10
805515.979238281
20
7678270.64596558
30
251.395993104458
10
805525.389547119
20
7678267.88589478
30
251.493836324606
10
805532.181295166
20
7678265.22476196
30
251.003375880868
10
805576.753418801
20
7678385.44354087
30
250.992883336927
10
805582.974050293
20
7678381.42211914
30
251.081480820659
10
805588.637563477
20
7678379.39520264
30
251.003817471035
10
805594.578664551
20
7678361.65393066
30
251.025663969748
10
805603.975545654
20
7678356.2671814
30
250.998240450204
10
805612.122854004
20
7678347.94512939
30
250.961421124254
10
805611.594381104
20
7678339.98745728
30
250.964300977557
10
805620.199239502
20
7678341.14950562
30
250.898685527257
10
805623.500783691
20
7678346.80041504
30
250.842451974196
10
805628.807363281
20
7678346.24673462
30
250.747735593513
10
805521.386556396
20
7678384.94885254
30
251.188132807322
10
805524.736226807
20
7678398.43325806
30
251.240193867571
10
805528.432637939
20
7678408.09701538
30
251.130729441017
10
805539.766958008
20
7678410.37368774
30
251.211767463187
10
805520.002614746
20
7678388.88052368
30
251.203676401673
10
805520.650625
20
7678400.52935791
30
251.236151387871
10
805523.429616699
20
7678414.46420288
30
251.142366209957
10
805532.108236084
20
7678417.10894775
30
251.190891168227
10
805534.661794434
20
7678419.07797241
30
251.125254919418
10
805532.306569824
20
7678434.33654785
30
251.037566536432
10
805593.094716797
20
7678451.37155151
30
250.633369543375
10
805592.117177734
20
7678442.74801636
30
251.143822432874
10
805586.076070557
20
7678438.19546509
30
250.960436209372
10
805576.369130859
20
7678435.39700317
30
250.733888014374
10
805572.03355957
20
7678429.21350098
30
251.001260375066
10
805566.509633789
20
7678422.6166687
30
251.078627878127
10
805563.518392334
20
7678419.15441895
30
251.091234135026
10
805630.349782715
20
7678393.97329712
30
251.053138375195
10
805626.959523926
20
7678388.76843262
30
251.044096904875
10
805631.207021484
20
7678385.65197754
30
251.085213701388
10
805639.152944336
20
7678397.92752075
30
251.101189108104
10
805322.928014526
20
7678079.73044586
30
251.500424427724
10
805320.869436035
20
7678073.12460327
30
251.454684747193
10
805316.007009277
20
7678069.3991394
30
251.384350758183
10
805306.291723022
20
7678072.54417419
30
251.490228308642
10
805296.587911377
20
7678076.1288147
30
251.405135981765
10
805290.636434326
20
7678069.49290466
30
251.167792183682
10
805291.437856445
20
7678060.70420837
30
251.226152859499
10
805281.894658813
20
7678054.72103882
30
251.052891887156
10
805277.338079224
20
7678054.07104492
30
251.103671464753
10
805275.888143311
20
7678046.29250336
30
250.966006403363
10
805283.610540161
20
7678031.4185791
30
250.870099349673
10
805201.544263611
20
7678132.50045776
30
250.863110999824
10
805196.663884888
20
7678115.80175781
30
250.683430341151
10
805198.42204834
20
7678106.93435669
30
250.70164771969
10
805199.148641357
20
7678093.13101196
30
250.583984631911
10
805196.228925476
20
7678085.54548645
30
250.470457021481
10
805196.250187725
20
7678082.65387454
30
250.483223372447
10
805209.514928589
20
7678136.24986267
30
250.669352296439
10
805220.576429138
20
7678129.42427063
30
250.550625754892
10
805233.382848511
20
7678123.75904846
30
251.0444980919
10
805241.615926514
20
7678118.50779724
30
251.278859649767
10
805249.749745532
20
7678113.96489003
30
251.035790511446
10
805270.274116548
20
7678098.58236439
30
251.047162849447
10
805276.221242676
20
7678094.84494019
30
251.063533099961
10
805284.493703613
20
7678091.21128845
30
251.255139850922
10
805291.762212524
20
7678088.43408203
30
251.441635557046
10
805404.166158447
20
7678132.80657959
30
250.821607109501
10
805393.554464111
20
7678127.81686401
30
250.5527915123
10
805193.865502713
20
7678081.60942711
30
250.459330233999
10
805203.025456404
20
7678085.62131549
30
250.551107571733
10
805205.851259741
20
7678086.84955512
30
250.573488942157
10
805211.141111479
20
7678089.66110503
30
250.642728328825
10
805219.978101491
20
7678094.34166136
30
250.776658135989
10
805220.698426608
20
7678094.71422004
30
250.804548383443
10
805227.733194047
20
7678099.11736006
30
250.70756892497
10
805233.791440078
20
7678102.89745318
30
250.837367018278
10
805235.676947232
20
7678104.20139998
30
250.791254595472
10
805243.909696205
20
7678109.87782882
30
251.198496056159
10
805245.881747381
20
7678111.23062548
30
251.239402456058
10
805251.275750497
20
7678115.4590824
30
250.971508069788
10
805255.901453268
20
7678119.07777526
30
251.263094581964
10
805258.840827881
20
7678121.50199085
30
251.158533793064
10
805263.077366191
20
7678124.98899364
30
251.189685079245
10
805265.941933764
20
7678127.60920496
30
251.032219797519
10
805270.20477933
20
7678131.49982147
30
250.655842264213
10
805273.130031363
20
7678134.26052207
30
250.461708976978
10
805280.403417652
20
7678141.12330954
30
250.540246825852
10
805315.151338659
20
7678173.9322723
30
251.059818850303
10
805316.689882538
20
7678175.40320447
30
251.068593694971
10
805323.918181115
20
7678182.31346494
30
251.188601847091
10
805331.146479692
20
7678189.2237254
30
251.286785967209
10
805338.374778269
20
7678196.13398587
30
251.362237282722
10
805343.222106244
20
7678200.76515193
30
251.46071951464
10
805345.199973007
20
7678202.80233184
30
251.62625402028
10
805347.747218512
20
7678205.41736459
30
251.816116991528
10
805354.102994701
20
7678211.38343063
30
251.982848822096
10
805360.141807014
20
7678217.00741411
30
252.296025028567
10
805367.459771296
20
7678223.82264696
30
252.421617246301
10
805374.777735577
20
7678230.63787981
30
252.454114076641
10
805377.03385709
20
7678232.73900343
30
252.407232729178
10
805389.44907011
20
7678244.26169206
30
252.23295600757
10
805396.778691504
20
7678251.06438639
30
252.312198463841
10
805404.108312899
20
7678257.86708073
30
252.317113514836
10
805411.437934294
20
7678264.66977506
30
252.280917048033
10
805418.767555688
20
7678271.4724694
30
252.16650071015
10
805426.097177083
20
7678278.27516373
30
252.182000382241
10
805433.426798478
20
7678285.07785807
30
252.081304848884
10
805440.756419873
20
7678291.8805524
30
251.774703742207
10
805448.086041267
20
7678298.68324674
30
251.764456438668
10
805455.415662662
20
7678305.48594107
30
251.347925411921
10
805462.745284057
20
7678312.28863541
30
251.488192709879
10
805469.97283325
20
7678319.04826452
30
251.515062019403
10
805477.245629035
20
7678325.91167777
30
251.905134687684
10
805484.51842482
20
7678332.77509102
30
251.310548524867
10
805491.791220604
20
7678339.63850428
30
251.674967391861
10
805499.064016389
20
7678346.50191753
30
251.603970986479
10
805506.336812174
20
7678353.36533078
30
251.496180543134
10
805513.609607959
20
7678360.22874403
30
251.409209616929
10
805520.882403744
20
7678367.09215728
30
251.30685569922
10
805528.155199528
20
7678373.95557054
30
251.286822096118
10
805535.427995313
20
7678380.81898379
30
251.584818591005
10
805542.700791098
20
7678387.68239704
30
251.242722306985
10
805549.973586883
20
7678394.54581029
30
251.196347832071
10
805557.246382667
20
7678401.40922355
30
251.136910892852
10
805564.519178452
20
7678408.2726368
30
251.149303406495
10
805571.791974237
20
7678415.13605005
30
250.861352709447
10
805579.064770022
20
7678421.9994633
30
251.129987084535
10
805586.337565807
20
7678428.86287656
30
251.208952827236
10
805593.610361591
20
7678435.72628981
30
251.08296440864
10
805600.883157376
20
7678442.58970306
30
251.088021916588
10
805610.768894722
20
7678417.54430035
30
251.145749900565
10
805603.496098938
20
7678410.68088709
30
251.090740116436
10
805596.223303153
20
7678403.81747384
30
250.985992230215
10
805588.950507368
20
7678396.95406059
30
250.975681592303
10
805581.677711583
20
7678390.09064734
30
251.010575288808
10
805574.404915798
20
7678383.22723409
30
250.984445657865
10
805567.132120014
20
7678376.36382083
30
251.099681399977
10
805559.859324229
20
7678369.50040758
30
251.099356094102
10
805552.586528444
20
7678362.63699433
30
251.060319061568
10
805545.313732659
20
7678355.77358108
30
251.098900065872
10
805538.040936875
20
7678348.91016782
30
251.242114900436
10
805530.76814109
20
7678342.04675457
30
251.325196186305
10
805523.495345305
20
7678335.18334132
30
251.408291764556
10
805516.22254952
20
7678328.31992807
30
251.497677368048
10
805508.949753735
20
7678321.45651481
30
251.484828835509
10
805501.676957951
20
7678314.59310156
30
251.697234651366
10
805494.404162166
20
7678307.72968831
30
251.380628696201
10
805487.131366381
20
7678300.86627506
30
252.037599789898
10
805483.743682342
20
7678297.66943087
30
251.597026590504
10
805479.752019893
20
7678293.96458192
30
251.638885290595
10
805465.092777104
20
7678280.35919325
30
251.793282473289
10
805457.763155709
20
7678273.55649892
30
251.997872575467
10
805450.433534314
20
7678266.75380458
30
252.112332177963
10
805443.10391292
20
7678259.95111025
30
252.183983571219
10
805435.774291525
20
7678253.14841591
30
252.170763120487
10
805428.44467013
20
7678246.34572158
30
252.14325111236
10
805421.115048736
20
7678239.54302724
30
252.173967439536
10
805413.785427341
20
7678232.74033291
30
252.301137714805
10
805406.455805946
20
7678225.93763857
30
252.367100775967
10
805399.126184552
20
7678219.13494424
30
252.449299504894
10
805394.056272305
20
7678214.42951463
30
252.526918915776
10
805391.815817697
20
7678212.3429691
30
252.559537781972
10
805384.497853416
20
7678205.52773626
30
252.536015155017
10
805377.179889134
20
7678198.71250341
30
252.318514719312
10
805371.173627613
20
7678193.1188887
30
252.133111983156
10
805369.898753389
20
7678191.92306241
30
252.20324041496
10
805365.265457269
20
7678187.58168936
30
252.010335489168
10
805363.124041322
20
7678185.3745444
30
251.605429171414
10
805360.824901813
20
7678183.01292424
30
251.576154432198
10
805355.650429429
20
7678178.06323942
30
251.308183628686
10
805348.422130852
20
7678171.15297896
30
251.02059743292
10
805341.193832275
20
7678164.2427185
30
251.048983021348
10
805333.965533698
20
7678157.33245803
30
250.749557152361
10
805332.371011195
20
7678155.8081757
30
250.772997688259
10
805297.560386335
20
7678122.93984382
30
250.512635598169
10
805290.287000047
20
7678116.07705635
30
251.046890193152
10
805287.211064176
20
7678113.17534943
30
250.978080102668
10
805282.796375941
20
7678109.14497525
30
250.956203217126
10
805279.460547627
20
7678106.10536671
30
251.122686931823
10
805274.74231627
20
7678102.21099121
30
251.018514069373
10
805271.557114847
20
7678099.586745
30
250.980637676459
10
805266.683069261
20
7678095.7711539
30
251.233363440704
10
805260.687691096
20
7678091.08654371
30
251.542777370218
10
805258.100768298
20
7678089.29595638
30
251.358911035384
10
805249.868019325
20
7678083.61952754
30
251.061220836169
10
805247.512312364
20
7678081.99918378
30
250.920666073942
10
805240.976815207
20
7678077.91343357
30
250.951340533392
10
805233.178842679
20
7678073.05228997
30
250.979282954782
10
805231.679492309
20
7678072.24918633
30
250.96222574889
10
805222.842502298
20
7678067.56863001
30
250.787950327801
10
805216.724312769
20
7678064.33785332
30
250.607421323752
10
805213.055177359
20
7678062.72143127
30
250.486240382201
10
805200.067882152
20
7678067.44813871
30
250.220713646337
10
805202.707704708
20
7678061.42088918
30
250.268345499219
10
805201.183187123
20
7678064.90167158
30
250.061967988362
10
805198.880363191
20
7678070.159485
30
250.165695642044
10
805208.882813442
20
7678072.24778311
30
250.327340645895
10
805210.278950599
20
7678069.06011922
30
250.188296619178
10
805203.004584448
20
7678060.7430526
30
250.361709423992
10
805212.124419255
20
7678064.84654052
30
250.518561389021
10
805197.347821829
20
7678073.65858731
30
250.148071546551
10
805195.694923816
20
7678077.43248823
30
250.470329633146
10
805194.740094381
20
7678079.61255721
30
250.395170690357
10
805204.64625931
20
7678081.9206942
30
250.631309937424
10
805206.515799296
20
7678077.65215578
30
250.237207401799
10
805208.040316881
20
7678074.17137338
30
250.290537449647
10
805209.391525807
20
7678079.51974502
30
250.312951477043
10
805205.609112522
20
7678079.72230532
30
250.477710024412
10
805208.18244231
20
7678082.02304626
30
250.624629584533
10
805212.322900903
20
7678073.45059021
30
250.365130167808
10
805216.028437375
20
7678065.77860224
30
250.685604607207
10
805214.03649406
20
7678069.90274601
30
250.293628801094
10
805213.549381285
20
7678070.91127025
30
250.256413790138
10
805219.547390643
20
7678073.78987097
30
250.350114868222
10
805218.152584858
20
7678076.423294
30
250.432971134234
10
805220.73625195
20
7678071.54527551
30
250.495184355774
10
805222.07489106
20
7678069.01789637
30
250.852575080346
10
805230.593603241
20
7678074.29936802
30
250.969527643624
10
805230.312769862
20
7678074.82958742
30
250.848975547678
10
805232.130487729
20
7678074.87189209
30
250.961598466184
10
805227.017658207
20
7678081.05082838
30
250.522899537096
10
805225.8287969
20
7678083.29542385
30
250.491872431506
10
805228.431186218
20
7678078.3820574
30
250.406601593676
10
805230.393213812
20
7678077.88723276
30
250.551126233269
10
805229.714279178
20
7678079.06564176
30
250.463074777905
10
805215.203834371
20
7678081.9905977
30
250.379325747568
10
805239.122708245
20
7678080.88198328
30
250.730727656749
10
805239.949110205
20
7678079.55885827
30
250.973684920564
10
805246.173155229
20
7678084.03885488
30
250.934927777781
10
805237.86191551
20
7678082.90059708
30
250.561798971431
10
805216.991806888
20
7678078.61486752
30
250.393068743048
10
805203.699453652
20
7678084.08244327
30
250.500814875775
10
805207.651837322
20
7678083.12161731
30
250.666686925117
10
805206.877675947
20
7678084.72445047
30
250.573229163879
10
805212.657611729
20
7678086.79792027
30
250.685648068266
10
805213.397139629
20
7678085.40167585
30
250.688911373058
10
805224.068907721
20
7678086.61813209
30
250.466830685051
10
805224.881862075
20
7678087.45314108
30
250.485451712382
10
805227.717412606
20
7678082.53155057
30
250.543718671713
10
805221.897129585
20
7678090.71849546
30
250.787356862033
10
805212.105306083
20
7678087.84068509
30
250.761594690556
10
805211.63725045
20
7678088.72438409
30
250.643097951819
10
805222.745214844
20
7678091.16166351
30
250.806962721743
10
805230.275969309
20
7678095.04620617
30
250.874814386999
10
805221.906530884
20
7678092.61734521
30
250.80014973146
10
805221.567063567
20
7678093.20654971
30
250.863379683375
10
805228.665544976
20
7678097.62460364
30
250.826064976191
10
805234.355004627
20
7678088.51539682
30
250.59826648369
10
805236.92956458
20
7678084.39335351
30
250.508809527316
10
805235.287355557
20
7678087.02264039
30
250.621808443057
10
805232.20424055
20
7678091.95891448
30
250.59850527587
10
805242.166660521
20
7678090.14114954
30
250.681766653175
10
805245.031578654
20
7678085.77759089
30
250.791848454701
10
805243.308237095
20
7678088.40241353
30
250.619712428935
10
805244.282413349
20
7678091.72055253
30
250.706566378667
10
805242.772483278
20
7678093.91046376
30
250.700305755312
10
805245.837754851
20
7678089.46477932
30
250.611821898928
10
805238.676070611
20
7678095.45766927
30
250.665925272622
10
805237.051519333
20
7678097.93202437
30
250.852505013151
10
805237.243641591
20
7678101.92916126
30
250.877974765563
10
805240.865203189
20
7678096.67666742
30
250.69855507405
10
805248.598426425
20
7678103.07757816
30
250.78453673934
10
805238.889805954
20
7678099.54166406
30
250.880631651782
10
805246.293796317
20
7678106.42007425
30
251.20261494783
10
805244.817924819
20
7678108.56058898
30
251.123423376867
10
805246.33184807
20
7678110.6182454
30
251.179768283047
10
805251.005232251
20
7678099.5868926
30
250.821221206803
10
805252.015636585
20
7678098.12146328
30
250.819649049521
10
805245.448693172
20
7678085.1422835
30
250.777260576005
10
805247.779093513
20
7678086.64917917
30
250.798388351869
10
805246.32592773
20
7678088.7567629
30
250.713912988416
10
805254.399736696
20
7678094.66370871
30
250.677939143361
10
805253.809388097
20
7678095.51991461
30
250.648024969234
10
805248.812203561
20
7678085.15081885
30
251.057602951861
10
805256.761131092
20
7678091.23888514
30
251.201892976293
10
805257.374185407
20
7678090.34974825
30
251.231474853575
10
805256.193488209
20
7678092.06216004
30
250.98086906815
10
805258.058155492
20
7678094.66413263
30
250.885172070571
10
805256.944748525
20
7678096.17896758
30
250.789470974558
10
805250.844699714
20
7678104.47832927
30
250.808973258079
10
805249.932653581
20
7678105.71920471
30
250.883678913539
10
805256.514238876
20
7678108.76518671
30
250.829591798261
10
805248.167785091
20
7678108.12037926
30
251.209546066917
10
805256.470958326
20
7678096.8235782
30
250.689321975773
10
805262.553907832
20
7678101.04751874
30
250.735147111874
10
805255.783962537
20
7678097.75826359
30
250.695387285966
10
805254.516573755
20
7678099.48259699
30
250.83000547885
10
805260.21199538
20
7678104.04008387
30
250.891185335703
10
805258.979409879
20
7678105.61511815
30
250.886091599517
10
805259.07680442
20
7678093.2782198
30
251.204838392054
10
805260.178366632
20
7678091.77950012
30
251.449007099971
10
805259.775644963
20
7678092.32741914
30
251.294805530861
10
805258.662237995
20
7678093.84225409
30
251.027139673687
10
805264.513718779
20
7678098.54321423
30
250.943994207501
10
805265.42583205
20
7678097.37768887
30
251.131010122551
10
805266.01747309
20
7678096.62167241
30
251.124788874002
10
805269.941450572
20
7678101.59821933
30
250.945315348033
10
805268.476080648
20
7678103.42257976
30
250.792384978768
10
805271.15494049
20
7678106.56304073
30
250.735665684052
10
805267.411495661
20
7678104.74796982
30
250.758024482124
10
805264.919114338
20
7678107.85094183
30
250.915087171115
10
805272.210799319
20
7678105.28211835
30
250.779257360357
10
805274.144420307
20
7678102.9363328
30
251.034037726408
10
805276.878558233
20
7678109.08142632
30
250.691675500097
10
805278.058147296
20
7678107.72180518
30
250.829931899305
10
805268.038248765
20
7678110.34407666
30
250.925135222207
10
805254.073719584
20
7678111.88375458
30
250.989774205916
10
805259.320649757
20
7678114.82093425
30
250.88500636229
10
805259.195404464
20
7678114.97686249
30
250.679904607484
10
805259.082683701
20
7678115.11719791
30
250.617272564843
10
805259.445895049
20
7678114.66500601
30
250.923325601277
10
805266.791572076
20
7678111.85649103
30
250.908955439281
10
805261.049034795
20
7678112.66912451
30
250.839315104472
10
805263.903861784
20
7678115.35973657
30
250.816983313227
10
805261.944798414
20
7678117.73638772
30
250.961157982743
10
805258.644325177
20
7678115.66294676
30
250.970388625733
10
805256.815743904
20
7678117.93949909
30
251.104319334792
10
805258.869766703
20
7678115.38227592
30
250.874345509945
10
805260.341928385
20
7678119.68092048
30
251.152387622454
10
805268.24134498
20
7678119.03687443
30
250.780410790891
10
805264.401127251
20
7678123.46319659
30
251.144246247348
10
805275.266453179
20
7678110.9395752
30
250.724156561777
10
805279.00749734
20
7678113.29573409
30
250.689927017391
10
805275.825378657
20
7678116.78178066
30
250.882520775802
10
805272.487865608
20
7678114.14223833
30
250.910569778995
10
805274.369154852
20
7678118.3770901
30
250.855491080141
10
805279.991796763
20
7678112.21742307
30
250.687081137371
10
805283.837017263
20
7678116.81092468
30
250.71594683566
10
805282.422094363
20
7678118.33552075
30
250.716713132728
10
805287.130117809
20
7678119.42281404
30
250.681597042865
10
805271.187036169
20
7678121.86313667
30
250.777566887659
10
805280.258894931
20
7678120.6663936
30
250.86429736088
10
805274.381522888
20
7678126.99933114
30
250.822634937061
10
805268.652128066
20
7678124.64015682
30
251.065510038181
10
805275.592370369
20
7678125.69462873
30
250.74139917272
10
805284.055589021
20
7678122.6812911
30
250.853819668851
10
805286.210504288
20
7678120.3974478
30
250.683642133854
10
805292.35839343
20
7678128.45307063
30
250.801760992153
10
805331.420485271
20
7678156.80862583
30
250.894721576886
10
805296.201554415
20
7678124.37997431
30
250.541734468644
10
805288.981901993
20
7678132.03157668
30
250.649943137469
10
805272.803339654
20
7678128.69984214
30
251.058688008297
10
805270.912240779
20
7678130.73752343
30
250.919639888347
10
805274.337881959
20
7678132.98040608
30
250.442165257495
10
805270.517694971
20
7678131.16265119
30
250.726965114531
10
805276.190834577
20
7678131.01659178
30
250.743337334763
10
805281.708515705
20
7678125.16878921
30
250.787081757398
10
805278.263396394
20
7678128.82002912
30
250.703929102216
10
805278.057512769
20
7678129.03823071
30
250.749666120707
10
805283.299513965
20
7678138.05394053
30
250.485762322122
10
805316.225846225
20
7678172.80132867
30
251.147254127212
10
805320.918961942
20
7678170.97948574
30
250.962653553091
10
805320.31724042
20
7678168.49504332
30
250.927504511852
10
805325.327708118
20
7678166.36783125
30
250.934441328756
10
805318.334524528
20
7678173.68286941
30
251.142478922857
10
805328.60333771
20
7678177.4126785
30
250.966100084717
10
805327.976550764
20
7678160.43344515
30
250.800337724766
10
805327.552811987
20
7678164.04031911
30
250.981159507313
10
805326.943370412
20
7678161.52089095
30
250.892330825769
10
805330.607716727
20
7678157.66408319
30
250.807118039226
10
805332.94281515
20
7678158.40224622
30
250.829339915583
10
805335.720905988
20
7678169.96753097
30
251.021982154279
10
805332.556006695
20
7678173.27809172
30
251.03683520877
10
805339.92234435
20
7678165.57272543
30
251.044059657757
10
805338.692317987
20
7678166.85936258
30
250.890184336122
10
805347.012603849
20
7678187.09861264
30
251.191333146721
10
805343.142691858
20
7678176.67539907
30
250.99890521301
10
805348.740168965
20
7678185.291538
30
251.205436161084
10
805339.784305272
20
7678180.18835218
30
251.048935580843
10
805335.721072119
20
7678184.43859174
30
251.004487012969
10
805345.975898648
20
7678173.71179666
30
251.099183887086
10
805353.038350974
20
7678180.79553629
30
251.374620860552
10
805358.078865704
20
7678185.78227176
30
251.479389194127
10
805349.154784593
20
7678184.85784009
30
251.146623916878
10
805340.392574324
20
7678194.02332268
30
251.40973513769
10
805345.492346547
20
7678188.68883833
30
251.234480871213
10
805343.764781431
20
7678190.49591298
30
251.187940562609
10
805338.98288119
20
7678195.49789559
30
251.4189227858
10
805345.70057986
20
7678198.26563827
30
251.538727504719
10
805354.290744098
20
7678189.60255116
30
251.292896227018
10
805348.587438333
20
7678195.35427293
30
251.334015311485
10
805350.677568284
20
7678197.4764
30
251.430954730022
10
805348.039145428
20
7678200.04177031
30
251.637509255192
10
805349.064590067
20
7678204.07612181
30
251.73267747738
10
805350.003567664
20
7678203.12012962
30
251.797575504328
10
805350.886486897
20
7678202.22121159
30
251.777448881852
10
805353.423127869
20
7678199.63860582
30
251.530948411563
10
805355.54580705
20
7678207.22513192
30
252.07615326857
10
805355.591553891
20
7678209.79076258
30
252.029706030092
10
805358.254942775
20
7678204.33684806
30
251.74818631033
10
805354.162007165
20
7678194.08843812
30
251.433006455018
10
805355.656721034
20
7678188.22497829
30
251.361487453281
10
805356.456287909
20
7678191.85768133
30
251.362102162807
10
805357.933231138
20
7678190.42163164
30
251.471373196336
10
805355.610271884
20
7678192.6802729
30
251.438722561245
10
805357.935826173
20
7678195.04413588
30
251.524600467602
10
805358.865282691
20
7678189.5153867
30
251.651958392394
10
805356.966369024
20
7678186.90421255
30
251.508970616857
10
805360.686368031
20
7678187.74472349
30
251.714661520329
10
805362.504582841
20
7678190.39259178
30
251.953998111916
10
805360.430423372
20
7678192.50433573
30
251.59591358829
10
805363.673214224
20
7678198.56028035
30
251.625452095927
10
805358.832759997
20
7678194.13094931
30
251.451940816634
10
805360.225223302
20
7678202.23627799
30
251.675113119013
10
805361.347188602
20
7678201.04012003
30
251.698529606542
10
805356.793326448
20
7678208.50493883
30
252.200230108373
10
805359.415375663
20
7678205.69950518
30
251.816994354365
10
805362.772486893
20
7678214.1826799
30
252.338829959135
10
805361.300396598
20
7678215.76336019
30
252.165973448289
10
805362.715438968
20
7678199.58139081
30
251.70649554342
10
805365.784819812
20
7678210.94813969
30
252.026944747934
10
805364.544447434
20
7678212.28000919
30
252.223532406221
10
805367.950468061
20
7678223.29575353
30
252.378000818662
10
805366.847555073
20
7678195.17602857
30
252.198942132497
10
805365.397209685
20
7678196.72228154
30
251.812676632228
10
805364.031274803
20
7678200.76077305
30
251.756535947009
10
805365.096482296
20
7678199.62106563
30
251.680132403627
10
805366.666980524
20
7678197.94072777
30
251.842085878524
10
805368.660830449
20
7678195.80742927
30
252.265591836145
10
805367.923379107
20
7678196.59645749
30
252.173215635056
10
805374.24933901
20
7678201.85922805
30
252.28255305649
10
805372.586422195
20
7678203.64481134
30
252.002560275913
10
805368.660848074
20
7678207.85995876
30
251.963519847663
10
805369.983003247
20
7678206.44027369
30
251.977232531854
10
805377.369119857
20
7678213.1823269
30
252.093874648778
10
805373.143675491
20
7678217.71946475
30
252.158075039365
10
805370.158603503
20
7678220.92473311
30
252.538932683683
10
805370.432808615
20
7678205.95728805
30
251.882074622878
10
805371.155223297
20
7678205.18158383
30
251.883005310244
10
805378.432296181
20
7678212.04072447
30
251.993338146566
10
805375.978812356
20
7678214.67519161
30
252.107365478285
10
805380.420748375
20
7678224.57860538
30
252.20782706791
10
805379.713559957
20
7678210.66494718
30
252.078534537269
10
805376.617848446
20
7678228.66202945
30
252.460145312511
10
805375.407928594
20
7678200.61517412
30
252.249140861786
10
805382.33060937
20
7678207.8548489
30
252.47431700754
10
805383.296776637
20
7678221.49042446
30
252.159167878286
10
805384.61893181
20
7678220.07073939
30
252.146233968232
10
805382.903088929
20
7678207.2401399
30
252.440690711939
10
805389.566790858
20
7678214.75789732
30
252.529216112453
10
805385.832043257
20
7678218.76814174
30
251.987615010208
10
805387.015801372
20
7678222.0023192
30
252.140312492674
10
805389.453411231
20
7678219.3804004
30
252.121484744826
10
805388.186943539
20
7678220.74262637
30
252.015459115752
10
805392.078593221
20
7678226.728432
30
252.132141848134
10
805394.350693129
20
7678224.28033846
30
252.07753903155
10
805391.741223836
20
7678216.91960511
30
252.520581502904
10
805398.064964235
20
7678220.27836518
30
252.448122771409
10
805396.69081998
20
7678221.7589487
30
252.409817349231
10
805397.357484024
20
7678221.0406458
30
252.370496818561
10
805404.210916816
20
7678228.35641363
30
252.369368919692
10
805377.435676388
20
7678227.78387374
30
252.53332644297
10
805382.521883755
20
7678226.83602424
30
252.216361776959
10
805379.539556609
20
7678230.04384668
30
252.53356737358
10
805393.343894367
20
7678225.36512242
30
252.012939074693
10
805401.013650479
20
7678231.80133569
30
252.029477489992
10
805390.622816633
20
7678228.29697098
30
252.176027178636
10
805406.73783601
20
7678240.33382067
30
252.120421988669
10
805397.952438028
20
7678235.09966532
30
252.1387105459
10
805387.466366462
20
7678231.69791531
30
252.183860944953
10
805384.554813287
20
7678234.83499327
30
252.408397191789
10
805392.455861006
20
7678241.0219994
30
252.305799516327
10
805389.925258713
20
7678243.74861856
30
252.190184875083
10
805394.129323812
20
7678239.21891254
30
252.238481641679
10
805399.526980015
20
7678248.10321935
30
252.361544243366
10
805394.945647132
20
7678238.33935797
30
252.137805833945
10
805402.765062519
20
7678244.61431957
30
252.083704263432
10
805398.452154311
20
7678249.26129953
30
252.299179528259
10
805402.455821677
20
7678230.24745595
30
252.118409425218
10
805409.676599963
20
7678237.16742423
30
252.095082246762
10
805408.139191043
20
7678238.82391867
30
252.039879627138
10
805405.282059423
20
7678241.90235965
30
252.116627584587
10
805412.611680817
20
7678248.70505399
30
252.099189749912
10
805412.724207025
20
7678233.88375385
30
252.255629909394
10
805411.690197486
20
7678234.9978563
30
252.324249698908
10
805419.251110488
20
7678241.5513435
30
252.325029893856
10
805416.829351305
20
7678244.16068872
30
252.053969250541
10
805420.081039197
20
7678240.65712969
30
252.191184330586
10
805420.839257864
20
7678254.5402383
30
252.063670340168
10
805421.519527298
20
7678253.80727616
30
252.128094852743
10
805409.890603083
20
7678251.63690254
30
252.074826359501
10
805411.142298841
20
7678250.28825221
30
252.13754559344
10
805406.65252058
20
7678255.12580233
30
252.422168197327
10
805405.877013426
20
7678255.96137917
30
252.346815245472
10
805413.356294096
20
7678262.60282183
30
252.15763160331
10
805414.431119801
20
7678261.44474165
30
252.37695065577
10
805419.941302212
20
7678255.50774832
30
252.084573610571
10
805417.233829867
20
7678258.42493764
30
252.093405676339
10
805419.543062843
20
7678270.63689256
30
252.265877597108
10
805421.679108864
20
7678268.33539144
30
252.382717157925
10
805422.958015399
20
7678266.95742262
30
252.236304125049
10
805422.10455901
20
7678253.17692872
30
252.017994025692
10
805426.131754057
20
7678248.83779285
30
252.314215080164
10
805435.688976095
20
7678267.94039757
30
251.953600799443
10
805428.318538534
20
7678261.18168096
30
252.039831579741
10
805427.270923607
20
7678262.31044266
30
252.037645697811
10
805424.740321314
20
7678265.03706181
30
252.041774911322
10
805423.84604876
20
7678251.30054564
30
252.026581985424
10
805424.635161303
20
7678250.45030956
30
252.11465625731
10
805431.474988705
20
7678257.78073663
30
252.059823717581
10
805425.152166072
20
7678249.89325833
30
252.250059250721
10
805432.073625807
20
7678257.13572995
30
252.17995514924
10
805430.454584555
20
7678258.88017984
30
252.001067472062
10
805429.474996571
20
7678259.93564532
30
251.994890515433
10
805433.352532342
20
7678255.75776113
30
252.29495456401
10
805423.434204002
20
7678266.44434912
30
252.243061813811
10
805431.865861879
20
7678272.05964479
30
251.991138828326
10
805430.546139178
20
7678273.48159134
30
252.21440689095
10
805429.035941036
20
7678275.10876729
30
252.306476298528
10
805420.753942434
20
7678269.33221995
30
252.277216422036
10
805427.267240509
20
7678277.01446885
30
252.160034336917
10
805428.740305583
20
7678260.72724443
30
252.110996869943
10
805436.137953921
20
7678267.45664256
30
252.02829439425
10
805434.600545001
20
7678269.11313699
30
251.965046935222
10
805437.17196346
20
7678266.3425401
30
251.926515906462
10
805435.025995148
20
7678253.95467427
30
252.105632006251
10
805441.920244106
20
7678261.22646437
30
252.16845681582
10
805440.518889073
20
7678262.73636638
30
252.267809510995
10
805438.750188546
20
7678264.64206794
30
252.025968970734
10
805449.440340942
20
7678267.82392931
30
252.054816276381
10
805447.943748188
20
7678269.43644601
30
252.256997611386
10
805445.209065065
20
7678272.38295381
30
251.837200183771
10
805446.175047661
20
7678271.34214757
30
251.922491157637
10
805444.283898636
20
7678273.37978232
30
251.789271238958
10
805439.494801824
20
7678278.53983578
30
251.848863737598
10
805443.11383521
20
7678274.6404772
30
251.835158429542
10
805450.538694326
20
7678281.34055684
30
251.667481688716
10
805443.562813036
20
7678274.15672219
30
251.894761923932
10
805450.919645209
20
7678280.93009804
30
251.752002930716
10
805438.134262957
20
7678280.00576006
30
252.094315791956
10
805454.960445643
20
7678276.57630293
30
252.077478404583
10
805456.361800676
20
7678275.06640092
30
251.927301023161
10
805453.300588226
20
7678278.36473055
30
251.760392000484
10
805464.303664561
20
7678281.20942933
30
251.779543734203
10
805464.167610674
20
7678281.35602176
30
251.633429124054
10
805451.627125419
20
7678280.16781741
30
251.622727170996
10
805465.157120949
20
7678294.98992324
30
251.39503828889
10
805426.478127966
20
7678277.86470493
30
252.225745414548
10
805435.494817556
20
7678282.84965316
30
252.116955710746
10
805436.27032471
20
7678282.01407633
30
252.235238690256
10
805444.824431085
20
7678287.49743881
30
251.955198377784
10
805438.964191666
20
7678279.11154625
30
251.890160384122
10
805446.389050782
20
7678285.81162589
30
251.724445929008
10
805441.930166396
20
7678275.91583132
30
251.833109719507
10
805449.259787791
20
7678282.71852566
30
251.684031876335
10
805454.031596116
20
7678292.27715764
30
251.544982677704
10
805458.983957591
20
7678286.94119326
30
251.473907777229
10
805445.599938239
20
7678286.66186197
30
251.882115079978
10
805443.504708384
20
7678288.91938536
30
252.089812131493
10
805444.116950874
20
7678288.25971943
30
252.122554554545
10
805442.919676671
20
7678289.5497328
30
251.910151671738
10
805449.664266353
20
7678296.98277457
30
251.694468485997
10
805451.079226774
20
7678295.45821332
30
251.890713344823
10
805452.086025536
20
7678294.37342936
30
251.730528965227
10
805458.830615218
20
7678301.80647113
30
251.472061172028
10
805461.895510767
20
7678283.80411531
30
251.830341541339
10
805462.058775431
20
7678283.62820439
30
251.799794363757
10
805462.181223929
20
7678283.49627121
30
251.318036823599
10
805462.385304759
20
7678283.27638257
30
251.450595969928
10
805469.932612372
20
7678289.84452902
30
251.469580828986
10
805468.953024388
20
7678290.8999945
30
251.529880261351
10
805462.98394186
20
7678282.63137588
30
251.308234025101
10
805463.351287354
20
7678282.23557633
30
251.383998562741
10
805463.718632848
20
7678281.83977677
30
251.34579389643
10
805463.881897512
20
7678281.66386586
30
251.617114607566
10
805472.055053004
20
7678287.55768714
30
251.639884768877
10
805464.031556788
20
7678281.50261419
30
251.676153450672
10
805456.589409185
20
7678289.52121999
30
251.53780321627
10
805463.91903058
20
7678296.32391433
30
251.367696846074
10
805463.888136705
20
7678311.05725901
30
252.15864424474
10
805460.671025786
20
7678285.12344716
30
251.61229171153
10
805466.612897537
20
7678293.42138426
30
251.328232288115
10
805465.384729458
20
7678309.44474231
30
252.250680280841
10
805463.030997219
20
7678311.98079131
30
251.602780839346
10
805463.588818154
20
7678311.37976235
30
252.016417619962
10
805468.218849911
20
7678314.25792019
30
251.632131700678
10
805468.105807192
20
7678306.51289375
30
251.421002711454
10
805472.881298615
20
7678301.36749953
30
251.419403123708
10
805474.649999142
20
7678299.46179797
30
251.381288072301
10
805476.677202054
20
7678297.27757079
30
251.626402078691
10
805477.806449314
20
7678296.06085364
30
251.582209225703
10
805477.853539052
20
7678303.96312709
30
251.370644678271
10
805473.54796266
20
7678300.64919663
30
251.331483156448
10
805480.176797426
20
7678301.4806947
30
251.657215721467
10
805466.840506046
20
7678307.87620333
30
251.519657229782
10
805472.168389148
20
7678310.03778515
30
251.354600631413
10
805466.133025835
20
7678308.63848395
30
251.713541299585
10
805471.248651975
20
7678303.12660866
30
251.381467914071
10
805473.849334912
20
7678308.24167231
30
251.424931368951
10
805465.724864175
20
7678309.07826124
30
251.945352449875
10
805469.79046587
20
7678312.5786277
30
251.636085359305
10
805469.298481744
20
7678313.10431926
30
251.745036929036
10
805477.361554925
20
7678304.48881865
30
251.355196261667
10
805480.089504384
20
7678308.32816353
30
251.424664741547
10
805476.842238348
20
7678305.0437153
30
251.427846943527
10
805479.567884977
20
7678308.88089601
30
251.362178557249
10
805486.936768547
20
7678315.64249012
30
251.357842692365
10
805478.552099815
20
7678309.95726979
30
251.388756412993
10
805480.96802128
20
7678307.39724567
30
251.324661513153
10
805481.051435873
20
7678300.54613192
30
251.679393409018
10
805482.185732608
20
7678299.33412082
30
251.633661965704
10
805481.543419999
20
7678300.02044036
30
251.719724150872
10
805485.044888752
20
7678303.07720497
30
251.486796013213
10
805480.627782875
20
7678300.99881077
30
251.863122034304
10
805484.262459641
20
7678303.90630369
30
251.556010886115
10
805483.782020714
20
7678304.4153994
30
251.843996925717
10
805482.505425849
20
7678305.76813942
30
251.494980947775
10
805486.760742065
20
7678301.25900603
30
251.992483730528
10
805486.211669005
20
7678301.84082969
30
251.601463453833
10
805485.813591036
20
7678302.26265185
30
251.50574092065
10
805492.262777231
20
7678309.99880059
30
251.521586195132
10
805481.997533268
20
7678306.3063263
30
251.363173510641
10
805488.419265809
20
7678314.07156623
30
251.328794391879
10
805487.389753822
20
7678315.1624856
30
251.442164091089
10
805493.097691385
20
7678323.68409629
30
251.337982831605
10
805489.75076798
20
7678312.66064385
30
251.381492316654
10
805483.905562152
20
7678304.28448907
30
251.879821178037
10
805484.042830417
20
7678304.13903316
30
251.694166106718
10
805491.260718896
20
7678311.06062878
30
251.66148718706
10
805483.507484184
20
7678304.70631123
30
251.604325370643
10
805477.138236685
20
7678311.45546572
30
251.416710992138
10
805472.882920469
20
7678315.9645991
30
251.651185472283
10
805476.026363738
20
7678312.63365864
30
251.360358166106
10
805470.865076973
20
7678318.10280107
30
251.497523752511
10
805489.2428754
20
7678313.19883074
30
251.407409850842
10
805497.270646642
20
7678319.26223645
30
251.431304413983
10
805495.19789584
20
7678321.45862078
30
251.325951939061
10
805501.358818678
20
7678329.50022695
30
251.294385215049
10
805507.643282955
20
7678337.4109228
30
251.273237468843
10
805494.250744811
20
7678322.4622666
30
251.354999044305
10
805483.82077893
20
7678318.94433941
30
251.350440936145
10
805485.8248956
20
7678316.82068304
30
251.357914766721
10
805485.042466489
20
7678317.64978176
30
251.333047010772
10
805478.920301868
20
7678324.1371156
30
251.732991823417
10
805479.469374928
20
7678323.55529194
30
251.801586476833
10
805486.399000051
20
7678330.78234498
30
251.472572529737
10
805480.141989427
20
7678322.84255795
30
251.786092882818
10
805484.328671511
20
7678318.40615252
30
251.441850358139
10
805491.615194123
20
7678325.25502018
30
251.38587474829
10
805482.942262034
20
7678319.87525727
30
251.354730498954
10
805490.256238298
20
7678326.69503375
30
251.328460373766
10
805487.428512038
20
7678329.69142561
30
251.648520580632
10
805492.37016958
20
7678324.45501264
30
251.299259175447
10
805488.361936241
20
7678328.70232538
30
251.597393331135
10
805496.06268591
20
7678320.54224851
30
251.321696498238
10
805498.670782946
20
7678317.77858611
30
251.720074472793
10
805494.676276433
20
7678322.01135326
30
251.448355671875
10
805502.360877013
20
7678328.43839877
30
251.284511248589
10
805501.839257606
20
7678328.99113125
30
251.403463736924
10
805503.239393909
20
7678327.50748091
30
251.279558397896
10
805499.878743678
20
7678316.49857406
30
251.592269010922
10
805501.40242142
20
7678314.88401339
30
251.724931616204
10
805507.494710126
20
7678322.99834752
30
251.457352472064
10
805505.586681242
20
7678325.02018475
30
251.663843992313
10
805506.547559097
20
7678324.00199334
30
251.800757632353
10
805500.37048717
20
7678330.54750954
30
251.305405861592
10
805499.684145845
20
7678331.27478912
30
251.284911035788
10
805497.927112052
20
7678333.13662484
30
251.293910746352
10
805504.639530213
20
7678326.02383057
30
251.45817963239
10
805511.802511385
20
7678333.00360855
30
251.426418262145
10
805506.176934781
20
7678324.39472431
30
251.825093117983
10
805505.874944598
20
7678324.71472733
30
251.794640657518
10
805514.863593696
20
7678329.75994163
30
251.468385652786
10
805507.137812637
20
7678323.3765329
30
251.514269033313
10
805514.204706024
20
7678330.45813003
30
251.547579994525
10
805513.339915954
20
7678331.3745023
30
251.774170788207
10
805493.795337274
20
7678337.51484791
30
251.635447904
10
805494.71503465
20
7678336.54029327
30
251.700959965588
10
805496.032809994
20
7678335.14391648
30
251.598553114261
10
805497.172136594
20
7678333.93663238
30
251.372445930536
10
805504.843010348
20
7678340.37822348
30
251.279986921759
10
805508.796336381
20
7678336.1890931
30
251.275938489901
10
805516.24758091
20
7678342.86341367
30
251.213211983737
10
805506.256873478
20
7678338.88002754
30
251.317214923413
10
805498.833082601
20
7678332.1766158
30
251.363948204282
10
805506.87458067
20
7678338.22547592
30
251.246240640703
10
805551.280057663
20
7678378.59140231
30
250.927158695519
10
805505.845068682
20
7678339.31639529
30
251.275957108233
10
805502.289820618
20
7678343.08370351
30
251.74736220582
10
805500.217069815
20
7678345.28008784
30
251.582440681515
10
805512.102079306
20
7678347.25618232
30
251.253901836496
10
805505.199907837
20
7678340.0000381
30
251.324811940428
10
805514.916078739
20
7678344.27433605
30
251.210473801504
10
805509.274353046
20
7678350.25257418
30
251.620093044692
10
805510.04305533
20
7678349.43802106
30
251.477286578633
10
805509.276775309
20
7678335.6799974
30
251.351187288176
10
805509.70230693
20
7678335.22908406
30
251.257691734214
10
805510.347467776
20
7678334.54544126
30
251.232766846041
10
805517.963434223
20
7678341.04521472
30
251.20159469633
10
805517.290819725
20
7678341.75794871
30
251.187727522486
10
805523.506649869
20
7678349.74137251
30
251.136674995668
10
805522.188874524
20
7678351.1377493
30
251.152568960261
10
805516.728019838
20
7678342.35431796
30
251.306270833924
10
805520.571531259
20
7678338.28155232
30
251.61278095463
10
805521.861852951
20
7678336.91426672
30
251.426224867812
10
805529.436638919
20
7678343.45767695
30
251.357567567781
10
805528.365946451
20
7678344.5922331
30
251.473937964737
10
805524.385166765
20
7678348.81045465
30
251.133318074593
10
805523.93218149
20
7678349.29045917
30
251.225196041923
10
805519.869040845
20
7678353.59595428
30
251.191961271394
10
805525.373498273
20
7678347.76317206
30
251.110607656959
10
805535.542654451
20
7678351.55746549
30
251.3898379461
10
805526.5265517
20
7678346.54134237
30
251.192662510876
10
805527.418795422
20
7678345.59587891
30
251.389457967788
10
805533.497357301
20
7678353.72475863
30
251.1028501749
10
805516.011802597
20
7678357.68326551
30
251.427833003358
10
805530.779445653
20
7678356.60478576
30
251.089549887849
10
805529.461670309
20
7678358.00116255
30
251.10876889253
10
805536.734466094
20
7678364.86457581
30
251.050903995402
10
805531.397152846
20
7678355.95023414
30
251.169024369452
10
805532.110947824
20
7678355.19386338
30
251.089876525749
10
805540.605431168
20
7678360.76271898
30
251.018174384525
10
805521.966823037
20
7678365.94305555
30
251.304060518281
10
805526.482948957
20
7678361.15755592
30
251.12560389666
10
805523.765037309
20
7678364.03758306
30
251.414901422899
10
805530.667208779
20
7678371.29372728
30
251.296666776219
10
805533.549842345
20
7678368.23915305
30
251.086102119807
10
805544.007261879
20
7678371.72798906
30
250.977884011936
10
805558.552853448
20
7678385.45481556
30
250.903646782396
10
805535.63389771
20
7678380.60079992
30
251.547227871656
10
805536.182970771
20
7678380.01897625
30
251.384337185919
10
805541.495252628
20
7678374.38983232
30
250.974498783684
10
805543.158620898
20
7678358.05723895
30
251.295567001338
10
805547.617417249
20
7678367.90249848
30
250.974134597565
10
805537.198755932
20
7678378.94260248
30
251.422891906358
10
805559.692180048
20
7678384.24753146
30
250.896786014584
10
805552.474291569
20
7678377.32593584
30
250.935829104453
10
805546.709024437
20
7678383.4350843
30
251.206264951765
10
805549.827436317
20
7678365.56065823
30
251.260865167907
10
805552.106089516
20
7678363.14609003
30
251.04882254715
10
805555.631461665
20
7678373.98044978
30
251.077681563038
10
805553.064545109
20
7678376.70047541
30
251.000502285218
10
805549.660292136
20
7678380.30778212
30
250.907324322621
10
805535.784892802
20
7678380.44079841
30
251.431137390616
10
805543.757756739
20
7678386.56238649
30
251.205238438926
10
805544.608819982
20
7678385.66055981
30
251.269940126669
10
805551.922796246
20
7678392.48033629
30
251.213070177739
10
805546.173678204
20
7678384.00236237
30
251.353008105134
10
805553.034669193
20
7678391.30214337
30
251.346607452459
10
805545.32261496
20
7678384.90418905
30
251.413639520825
10
805548.013072955
20
7678382.0532531
30
251.003847708036
10
805554.681888374
20
7678389.55667239
30
251.053401949164
10
805558.783787236
20
7678399.78011729
30
251.00710766383
10
805555.642766229
20
7678388.53848098
30
250.948705976763
10
805558.939626853
20
7678370.47496222
30
251.077586624999
10
805554.780398422
20
7678374.88227646
30
250.989590935644
10
805556.839422398
20
7678372.70043773
30
251.354671545756
10
805561.133496831
20
7678382.72024435
30
250.897283581361
10
805553.819520567
20
7678375.90046787
30
250.937535714685
10
805560.186345802
20
7678383.72389017
30
250.973510306599
10
805562.35518439
20
7678381.4256867
30
251.006445053547
10
805565.855525149
20
7678377.71656085
30
251.104770385199
10
805563.988676744
20
7678379.6947613
30
251.274008450842
10
805569.21617538
20
7678388.7254677
30
250.943990438192
10
805568.255297524
20
7678389.74365911
30
250.87841805863
10
805562.256674342
20
7678396.10008262
30
251.076608315285
10
805561.83114272
20
7678396.55099596
30
251.058740414691
10
805560.10156258
20
7678398.3837405
30
251.221238945987
10
805565.825649233
20
7678392.31822882
30
250.882163654357
10
805573.098445018
20
7678399.18164207
30
250.860450603581
10
805563.354820462
20
7678394.9364353
30
250.908554811192
10
805570.627616247
20
7678401.79984855
30
250.884464974689
10
805567.964611905
20
7678404.62169331
30
251.146821578167
10
805571.522282232
20
7678386.28180831
30
251.242618886386
10
805572.414525955
20
7678385.33634486
30
251.078303158441
10
805582.54007939
20
7678403.74685185
30
250.819129000497
10
805587.644036587
20
7678412.90846857
30
250.87033078079
10
805602.189628157
20
7678426.63529508
30
250.910233870121
10
805575.624181095
20
7678396.50525322
30
250.855036236735
10
805578.82253167
20
7678393.11613038
30
251.232586345845
10
805580.291302106
20
7678391.55975209
30
251.021118971793
10
805586.260049373
20
7678399.80499654
30
251.239520653052
10
805583.638225511
20
7678402.58320453
30
250.869511685672
10
805580.371240803
20
7678406.04505532
30
250.84630635328
10
805574.715788282
20
7678412.03783905
30
251.27917390551
10
805577.337612145
20
7678409.25963106
30
250.907692652336
10
805597.154305092
20
7678417.4009504
30
250.854690170596
10
805593.32694276
20
7678406.88659366
30
251.181076890215
10
805594.46626936
20
7678405.67930956
30
250.962314590386
10
805600.750733637
20
7678413.59000541
30
251.269871388607
10
805602.027328502
20
7678412.23726539
30
251.09688632497
10
805589.99132392
20
7678410.42117241
30
250.828113575675
10
805580.87671112
20
7678420.07944522
30
250.875238713885
10
805583.031822882
20
7678417.79578734
30
251.192628306543
10
805581.686593884
20
7678419.22125531
30
250.911298457676
10
805589.769272433
20
7678425.22647866
30
250.907986242862
10
805587.641614325
20
7678427.48104536
30
251.24108145504
10
805585.022212725
20
7678415.68667656
30
250.931947941836
10
805594.916832372
20
7678419.77188183
30
250.899357216085
10
805591.457672093
20
7678423.4373709
30
251.095815149619
10
805611.892072233
20
7678430.92413862
30
250.915888377417
10
805604.578095969
20
7678424.10436214
30
250.892875281992
10
805593.777505772
20
7678420.97916593
30
250.916786389787
10
805595.930195271
20
7678433.26808483
30
251.259155422462
10
805598.20884847
20
7678430.85351663
30
251.000010922375
10
805599.952155437
20
7678429.0062265
30
251.049206832889
10
805599.018731234
20
7678429.99532673
30
250.978659979359
10
805600.940486945
20
7678427.95894391
30
250.934746928311
10
805606.030717316
20
7678437.13510622
30
250.996804787568
10
805603.532434892
20
7678439.78240389
30
251.336075520482
10
805604.630581012
20
7678438.61875656
30
251.146376249821
10
805607.941168462
20
7678420.54069221
30
251.284650847405
10
805609.341304766
20
7678419.05704187
30
251.101601792972
10
805610.137460703
20
7678418.21339756
30
251.16690666457
10
805609.462423942
20
7678433.49870833
30
250.928111229365
93
8172
90
3
90
415
90
417
90
420
90
3
90
417
90
5
90
416
90
3
90
421
90
422
90
416
90
3
90
421
90
5
90
6
90
3
90
5
90
421
90
416
90
3
90
417
90
416
90
420
90
3
90
428
90
423
90
418
90
3
90
415
90
418
90
5
90
3
90
428
90
418
90
419
90
3
90
418
90
415
90
419
90
3
90
417
90
415
90
5
90
3
90
428
90
427
90
423
90
3
90
414
90
421
90
6
90
3
90
423
90
5
90
418
90
3
90
434
90
420
90
422
90
3
90
422
90
420
90
416
90
3
90
434
90
422
90
433
90
3
90
414
90
433
90
422
90
3
90
420
90
419
90
415
90
3
90
435
90
420
90
434
90
3
90
428
90
419
90
24
90
3
90
432
90
24
90
419
90
3
90
432
90
437
90
24
90
3
90
420
90
432
90
419
90
3
90
432
90
420
90
435
90
3
90
24
90
448
90
429
90
3
90
437
90
432
90
435
90
3
90
422
90
421
90
414
90
3
90
414
90
6
90
7
90
3
90
24
90
427
90
428
90
3
90
278
90
5
90
291
90
3
90
425
90
291
90
5
90
3
90
425
90
426
90
454
90
3
90
5
90
424
90
425
90
3
90
424
90
5
90
423
90
3
90
426
90
425
90
424
90
3
90
278
90
291
90
292
90
3
90
279
90
292
90
291
90
3
90
454
90
293
90
292
90
3
90
279
90
454
90
292
90
3
90
454
90
279
90
291
90
3
90
277
90
278
90
292
90
3
90
454
90
291
90
425
90
3
90
277
90
5
90
278
90
3
90
430
90
431
90
426
90
3
90
424
90
430
90
426
90
3
90
430
90
427
90
429
90
3
90
24
90
429
90
427
90
3
90
430
90
424
90
423
90
3
90
429
90
431
90
430
90
3
90
455
90
457
90
456
90
3
90
455
90
456
90
426
90
3
90
455
90
431
90
458
90
3
90
431
90
448
90
458
90
3
90
455
90
426
90
431
90
3
90
456
90
293
90
454
90
3
90
429
90
448
90
431
90
3
90
454
90
426
90
456
90
3
90
430
90
423
90
427
90
3
90
457
90
455
90
458
90
3
90
436
90
435
90
434
90
3
90
412
90
433
90
413
90
3
90
414
90
413
90
433
90
3
90
411
90
439
90
412
90
3
90
433
90
412
90
439
90
3
90
412
90
413
90
272
90
3
90
438
90
433
90
439
90
3
90
453
90
437
90
444
90
3
90
437
90
453
90
24
90
3
90
438
90
445
90
436
90
3
90
436
90
437
90
435
90
3
90
434
90
438
90
436
90
3
90
437
90
436
90
443
90
3
90
441
90
438
90
439
90
3
90
24
90
453
90
448
90
3
90
440
90
442
90
441
90
3
90
440
90
441
90
439
90
3
90
442
90
440
90
411
90
3
90
272
90
410
90
411
90
3
90
441
90
445
90
438
90
3
90
411
90
410
90
442
90
3
90
446
90
447
90
445
90
3
90
446
90
445
90
441
90
3
90
449
90
446
90
442
90
3
90
410
90
409
90
442
90
3
90
446
90
441
90
442
90
3
90
442
90
409
90
450
90
3
90
409
90
410
90
272
90
3
90
440
90
439
90
411
90
3
90
411
90
412
90
272
90
3
90
436
90
445
90
443
90
3
90
453
90
459
90
448
90
3
90
444
90
437
90
443
90
3
90
471
90
461
90
447
90
3
90
443
90
447
90
461
90
3
90
443
90
445
90
447
90
3
90
461
90
444
90
443
90
3
90
444
90
459
90
453
90
3
90
23
90
444
90
461
90
3
90
452
90
476
90
471
90
3
90
23
90
461
90
472
90
3
90
447
90
452
90
471
90
3
90
461
90
471
90
472
90
3
90
447
90
446
90
452
90
3
90
458
90
448
90
459
90
3
90
450
90
451
90
449
90
3
90
449
90
452
90
446
90
3
90
408
90
451
90
450
90
3
90
271
90
407
90
408
90
3
90
408
90
450
90
409
90
3
90
407
90
496
90
408
90
3
90
491
90
492
90
475
90
3
90
491
90
475
90
449
90
3
90
492
90
491
90
451
90
3
90
408
90
496
90
451
90
3
90
491
90
449
90
451
90
3
90
451
90
496
90
492
90
3
90
497
90
492
90
496
90
3
90
452
90
449
90
475
90
3
90
449
90
442
90
450
90
3
90
459
90
444
90
23
90
3
90
408
90
409
90
271
90
3
90
433
90
438
90
434
90
3
90
413
90
414
90
7
90
3
90
476
90
452
90
475
90
3
90
294
90
293
90
464
90
3
90
464
90
293
90
456
90
3
90
462
90
295
90
463
90
3
90
463
90
464
90
456
90
3
90
456
90
457
90
463
90
3
90
295
90
464
90
463
90
3
90
294
90
276
90
277
90
3
90
293
90
294
90
277
90
3
90
468
90
296
90
295
90
3
90
464
90
295
90
294
90
3
90
468
90
295
90
462
90
3
90
295
90
276
90
294
90
3
90
457
90
462
90
463
90
3
90
292
90
293
90
277
90
3
90
462
90
459
90
460
90
3
90
460
90
459
90
23
90
3
90
473
90
470
90
22
90
3
90
470
90
473
90
23
90
3
90
472
90
470
90
23
90
3
90
460
90
23
90
473
90
3
90
468
90
462
90
467
90
3
90
465
90
467
90
462
90
3
90
466
90
467
90
465
90
3
90
460
90
465
90
462
90
3
90
466
90
465
90
460
90
3
90
469
90
468
90
467
90
3
90
480
90
473
90
22
90
3
90
458
90
462
90
457
90
3
90
458
90
459
90
462
90
3
90
473
90
466
90
460
90
3
90
297
90
276
90
296
90
3
90
295
90
296
90
276
90
3
90
297
90
282
90
281
90
3
90
296
90
469
90
297
90
3
90
296
90
468
90
469
90
3
90
281
90
276
90
297
90
3
90
275
90
274
90
4
90
3
90
4
90
5
90
275
90
3
90
281
90
274
90
275
90
3
90
276
90
281
90
275
90
3
90
154
90
281
90
282
90
3
90
154
90
155
90
281
90
3
90
298
90
297
90
469
90
3
90
275
90
5
90
276
90
3
90
298
90
469
90
481
90
3
90
481
90
466
90
473
90
3
90
485
90
481
90
483
90
3
90
480
90
483
90
481
90
3
90
481
90
473
90
480
90
3
90
485
90
482
90
481
90
3
90
299
90
282
90
298
90
3
90
298
90
282
90
297
90
3
90
283
90
282
90
299
90
3
90
298
90
482
90
299
90
3
90
482
90
298
90
481
90
3
90
299
90
482
90
487
90
3
90
486
90
482
90
485
90
3
90
481
90
469
90
466
90
3
90
469
90
467
90
466
90
3
90
153
90
154
90
282
90
3
90
22
90
470
90
472
90
3
90
276
90
5
90
277
90
3
90
476
90
477
90
474
90
3
90
472
90
474
90
22
90
3
90
495
90
477
90
479
90
3
90
476
90
493
90
479
90
3
90
476
90
475
90
493
90
3
90
479
90
477
90
476
90
3
90
484
90
485
90
483
90
3
90
478
90
483
90
22
90
3
90
489
90
483
90
478
90
3
90
22
90
477
90
478
90
3
90
477
90
22
90
474
90
3
90
477
90
490
90
478
90
3
90
494
90
479
90
493
90
3
90
474
90
472
90
471
90
3
90
477
90
495
90
490
90
3
90
495
90
479
90
494
90
3
90
508
90
495
90
506
90
3
90
495
90
494
90
506
90
3
90
499
90
494
90
492
90
3
90
490
90
495
90
508
90
3
90
21
90
489
90
490
90
3
90
490
90
489
90
478
90
3
90
502
90
21
90
511
90
3
90
490
90
509
90
21
90
3
90
509
90
490
90
508
90
3
90
484
90
483
90
489
90
3
90
509
90
510
90
21
90
3
90
493
90
492
90
494
90
3
90
474
90
471
90
476
90
3
90
21
90
502
90
489
90
3
90
487
90
488
90
300
90
3
90
300
90
299
90
487
90
3
90
487
90
486
90
505
90
3
90
503
90
505
90
486
90
3
90
482
90
486
90
487
90
3
90
505
90
488
90
487
90
3
90
283
90
152
90
153
90
3
90
283
90
153
90
282
90
3
90
301
90
284
90
283
90
3
90
300
90
488
90
301
90
3
90
301
90
283
90
300
90
3
90
301
90
488
90
284
90
3
90
488
90
505
90
529
90
3
90
300
90
283
90
299
90
3
90
503
90
529
90
505
90
3
90
502
90
503
90
484
90
3
90
529
90
503
90
504
90
3
90
503
90
502
90
504
90
3
90
502
90
484
90
489
90
3
90
529
90
284
90
488
90
3
90
283
90
284
90
302
90
3
90
302
90
284
90
529
90
3
90
152
90
303
90
153
90
3
90
302
90
529
90
539
90
3
90
303
90
152
90
539
90
3
90
302
90
152
90
283
90
3
90
538
90
539
90
529
90
3
90
484
90
503
90
486
90
3
90
486
90
485
90
484
90
3
90
303
90
47
90
153
90
3
90
508
90
510
90
509
90
3
90
22
90
483
90
480
90
3
90
492
90
493
90
475
90
3
90
153
90
45
90
154
90
3
90
407
90
498
90
496
90
3
90
499
90
512
90
515
90
3
90
497
90
499
90
492
90
3
90
499
90
497
90
512
90
3
90
406
90
498
90
407
90
3
90
497
90
496
90
498
90
3
90
497
90
498
90
514
90
3
90
501
90
507
90
506
90
3
90
506
90
494
90
501
90
3
90
516
90
500
90
515
90
3
90
501
90
494
90
500
90
3
90
500
90
499
90
515
90
3
90
500
90
507
90
501
90
3
90
513
90
498
90
406
90
3
90
508
90
506
90
507
90
3
90
517
90
512
90
514
90
3
90
514
90
512
90
497
90
3
90
518
90
514
90
513
90
3
90
406
90
405
90
513
90
3
90
514
90
498
90
513
90
3
90
405
90
404
90
513
90
3
90
519
90
516
90
517
90
3
90
517
90
516
90
512
90
3
90
404
90
403
90
518
90
3
90
513
90
404
90
518
90
3
90
517
90
514
90
518
90
3
90
404
90
285
90
403
90
3
90
404
90
405
90
286
90
3
90
515
90
512
90
516
90
3
90
405
90
406
90
268
90
3
90
500
90
516
90
507
90
3
90
20
90
510
90
523
90
3
90
511
90
21
90
510
90
3
90
510
90
507
90
523
90
3
90
528
90
534
90
523
90
3
90
508
90
507
90
510
90
3
90
511
90
510
90
20
90
3
90
533
90
504
90
535
90
3
90
20
90
535
90
504
90
3
90
20
90
534
90
536
90
3
90
523
90
534
90
20
90
3
90
20
90
504
90
511
90
3
90
536
90
535
90
20
90
3
90
522
90
523
90
507
90
3
90
511
90
504
90
502
90
3
90
519
90
524
90
520
90
3
90
520
90
507
90
516
90
3
90
403
90
519
90
518
90
3
90
286
90
403
90
285
90
3
90
520
90
522
90
507
90
3
90
519
90
525
90
524
90
3
90
523
90
522
90
528
90
3
90
521
90
528
90
522
90
3
90
526
90
521
90
524
90
3
90
520
90
521
90
522
90
3
90
521
90
520
90
524
90
3
90
528
90
19
90
534
90
3
90
403
90
147
90
402
90
3
90
516
90
519
90
520
90
3
90
518
90
519
90
517
90
3
90
521
90
544
90
528
90
3
90
285
90
404
90
286
90
3
90
494
90
499
90
500
90
3
90
268
90
406
90
271
90
3
90
272
90
270
90
271
90
3
90
272
90
7
90
273
90
3
90
265
90
269
90
273
90
3
90
271
90
409
90
272
90
3
90
273
90
270
90
272
90
3
90
405
90
268
90
286
90
3
90
269
90
268
90
270
90
3
90
288
90
268
90
267
90
3
90
269
90
266
90
268
90
3
90
269
90
270
90
273
90
3
90
270
90
268
90
271
90
3
90
265
90
273
90
7
90
3
90
288
90
287
90
268
90
3
90
266
90
149
90
267
90
3
90
268
90
266
90
267
90
3
90
266
90
265
90
264
90
3
90
151
90
264
90
265
90
3
90
265
90
266
90
269
90
3
90
264
90
263
90
266
90
3
90
150
90
149
90
263
90
3
90
266
90
263
90
149
90
3
90
69
90
150
90
151
90
3
90
263
90
151
90
150
90
3
90
151
90
263
90
264
90
3
90
65
90
149
90
150
90
3
90
151
90
265
90
7
90
3
90
288
90
267
90
149
90
3
90
8
90
72
90
151
90
3
90
148
90
288
90
149
90
3
90
527
90
524
90
525
90
3
90
525
90
403
90
402
90
3
90
147
90
148
90
402
90
3
90
286
90
148
90
147
90
3
90
147
90
403
90
286
90
3
90
401
90
525
90
402
90
3
90
526
90
545
90
544
90
3
90
544
90
521
90
526
90
3
90
549
90
526
90
527
90
3
90
526
90
524
90
527
90
3
90
527
90
525
90
401
90
3
90
401
90
400
90
527
90
3
90
402
90
148
90
401
90
3
90
525
90
519
90
403
90
3
90
400
90
401
90
148
90
3
90
527
90
400
90
549
90
3
90
399
90
400
90
148
90
3
90
287
90
288
90
148
90
3
90
150
90
66
90
65
90
3
90
149
90
398
90
148
90
3
90
64
90
149
90
65
90
3
90
549
90
400
90
399
90
3
90
71
90
70
90
151
90
3
90
65
90
66
90
67
90
3
90
68
90
66
90
150
90
3
90
545
90
526
90
549
90
3
90
69
90
151
90
70
90
3
90
148
90
286
90
287
90
3
90
287
90
286
90
268
90
3
90
544
90
547
90
528
90
3
90
71
90
151
90
72
90
3
90
271
90
406
90
407
90
3
90
272
90
413
90
7
90
3
90
69
90
68
90
150
90
3
90
532
90
537
90
540
90
3
90
532
90
529
90
531
90
3
90
530
90
537
90
531
90
3
90
531
90
529
90
530
90
3
90
529
90
533
90
530
90
3
90
531
90
537
90
532
90
3
90
541
90
304
90
539
90
3
90
539
90
152
90
302
90
3
90
538
90
540
90
537
90
3
90
541
90
539
90
538
90
3
90
540
90
538
90
529
90
3
90
304
90
48
90
303
90
3
90
537
90
530
90
533
90
3
90
529
90
532
90
540
90
3
90
536
90
534
90
19
90
3
90
536
90
19
90
542
90
3
90
548
90
19
90
547
90
3
90
546
90
547
90
544
90
3
90
536
90
533
90
535
90
3
90
547
90
546
90
548
90
3
90
537
90
543
90
541
90
3
90
538
90
537
90
541
90
3
90
537
90
542
90
543
90
3
90
536
90
542
90
537
90
3
90
19
90
548
90
553
90
3
90
543
90
304
90
541
90
3
90
553
90
18
90
557
90
3
90
533
90
536
90
537
90
3
90
547
90
19
90
528
90
3
90
553
90
542
90
19
90
3
90
306
90
305
90
543
90
3
90
304
90
543
90
305
90
3
90
567
90
307
90
306
90
3
90
543
90
556
90
306
90
3
90
543
90
542
90
556
90
3
90
50
90
305
90
306
90
3
90
51
90
49
90
50
90
3
90
51
90
50
90
306
90
3
90
51
90
307
90
52
90
3
90
53
90
566
90
565
90
3
90
51
90
306
90
307
90
3
90
51
90
52
90
308
90
3
90
565
90
306
90
556
90
3
90
48
90
304
90
305
90
3
90
556
90
564
90
565
90
3
90
564
90
556
90
555
90
3
90
571
90
568
90
555
90
3
90
553
90
557
90
555
90
3
90
553
90
548
90
18
90
3
90
568
90
564
90
555
90
3
90
307
90
567
90
308
90
3
90
565
90
567
90
306
90
3
90
568
90
566
90
53
90
3
90
564
90
53
90
565
90
3
90
53
90
564
90
568
90
3
90
565
90
308
90
567
90
3
90
557
90
571
90
555
90
3
90
556
90
553
90
555
90
3
90
556
90
542
90
553
90
3
90
308
90
52
90
307
90
3
90
546
90
18
90
548
90
3
90
539
90
304
90
303
90
3
90
551
90
545
90
550
90
3
90
550
90
545
90
549
90
3
90
552
90
550
90
399
90
3
90
149
90
397
90
398
90
3
90
550
90
549
90
399
90
3
90
398
90
552
90
399
90
3
90
558
90
551
90
559
90
3
90
559
90
551
90
550
90
3
90
560
90
559
90
552
90
3
90
552
90
559
90
550
90
3
90
562
90
552
90
398
90
3
90
62
90
58
90
63
90
3
90
398
90
399
90
148
90
3
90
546
90
551
90
554
90
3
90
101
90
67
90
68
90
3
90
63
90
149
90
64
90
3
90
68
90
69
90
101
90
3
90
72
90
73
90
71
90
3
90
67
90
66
90
68
90
3
90
74
90
71
90
73
90
3
90
61
90
63
90
64
90
3
90
63
90
397
90
149
90
3
90
75
90
74
90
73
90
3
90
67
90
61
90
64
90
3
90
70
90
71
90
74
90
3
90
63
90
61
90
62
90
3
90
8
90
75
90
73
90
3
90
64
90
65
90
67
90
3
90
101
90
69
90
70
90
3
90
70
90
74
90
101
90
3
90
18
90
554
90
558
90
3
90
554
90
18
90
546
90
3
90
563
90
569
90
558
90
3
90
558
90
569
90
18
90
3
90
554
90
551
90
558
90
3
90
557
90
569
90
570
90
3
90
571
90
570
90
572
90
3
90
570
90
571
90
557
90
3
90
560
90
17
90
563
90
3
90
569
90
563
90
570
90
3
90
563
90
558
90
560
90
3
90
54
90
568
90
571
90
3
90
558
90
559
90
560
90
3
90
557
90
18
90
569
90
3
90
396
90
561
90
397
90
3
90
562
90
560
90
552
90
3
90
58
90
62
90
59
90
3
90
101
90
74
90
75
90
3
90
398
90
397
90
562
90
3
90
67
90
100
90
61
90
3
90
58
90
95
90
57
90
3
90
58
90
57
90
397
90
3
90
60
90
98
90
59
90
3
90
61
90
60
90
59
90
3
90
61
90
99
90
60
90
3
90
58
90
59
90
96
90
3
90
397
90
63
90
58
90
3
90
76
90
103
90
75
90
3
90
76
90
290
90
77
90
3
90
17
90
562
90
56
90
3
90
62
90
61
90
59
90
3
90
95
90
396
90
57
90
3
90
75
90
290
90
76
90
3
90
546
90
545
90
551
90
3
90
544
90
545
90
546
90
3
90
17
90
570
90
563
90
3
90
8
90
73
90
72
90
3
90
529
90
504
90
533
90
3
90
49
90
305
90
50
90
3
90
155
90
274
90
280
90
3
90
280
90
274
90
281
90
3
90
46
90
47
90
28
90
3
90
46
90
153
90
47
90
3
90
303
90
48
90
47
90
3
90
46
90
45
90
153
90
3
90
155
90
154
90
42
90
3
90
42
90
154
90
44
90
3
90
27
90
44
90
45
90
3
90
45
90
44
90
154
90
3
90
155
90
280
90
281
90
3
90
45
90
46
90
27
90
3
90
48
90
28
90
47
90
3
90
3
90
274
90
155
90
3
90
308
90
49
90
51
90
3
90
49
90
48
90
305
90
3
90
568
90
572
90
566
90
3
90
54
90
55
90
572
90
3
90
55
90
571
90
572
90
3
90
572
90
570
90
17
90
3
90
30
90
49
90
308
90
3
90
566
90
309
90
308
90
3
90
572
90
309
90
566
90
3
90
54
90
571
90
55
90
3
90
572
90
568
90
54
90
3
90
309
90
39
90
573
90
3
90
39
90
309
90
572
90
3
90
29
90
48
90
49
90
3
90
308
90
565
90
566
90
3
90
309
90
31
90
308
90
3
90
41
90
25
90
40
90
3
90
42
90
41
90
40
90
3
90
41
90
42
90
43
90
3
90
44
90
43
90
42
90
3
90
40
90
3
90
155
90
3
90
43
90
25
90
41
90
3
90
25
90
43
90
26
90
3
90
40
90
25
90
3
90
3
90
144
90
26
90
27
90
3
90
27
90
26
90
43
90
3
90
43
90
44
90
27
90
3
90
27
90
28
90
144
90
3
90
46
90
28
90
27
90
3
90
42
90
40
90
155
90
3
90
30
90
144
90
29
90
3
90
29
90
28
90
48
90
3
90
144
90
30
90
31
90
3
90
309
90
32
90
31
90
3
90
29
90
49
90
30
90
3
90
144
90
31
90
32
90
3
90
145
90
33
90
34
90
3
90
309
90
33
90
32
90
3
90
35
90
146
90
145
90
3
90
34
90
35
90
145
90
3
90
34
90
309
90
35
90
3
90
144
90
32
90
33
90
3
90
33
90
309
90
34
90
3
90
144
90
28
90
29
90
3
90
30
90
308
90
31
90
3
90
145
90
144
90
33
90
3
90
561
90
582
90
562
90
3
90
4
90
274
90
3
90
3
90
59
90
97
90
96
90
3
90
97
90
59
90
98
90
3
90
97
90
98
90
99
90
3
90
100
90
99
90
61
90
3
90
98
90
60
90
99
90
3
90
100
90
97
90
99
90
3
90
130
90
396
90
95
90
3
90
396
90
397
90
57
90
3
90
131
90
95
90
96
90
3
90
96
90
97
90
131
90
3
90
95
90
58
90
96
90
3
90
561
90
562
90
397
90
3
90
131
90
97
90
100
90
3
90
17
90
56
90
582
90
3
90
100
90
102
90
131
90
3
90
103
90
102
90
101
90
3
90
105
90
103
90
104
90
3
90
76
90
104
90
103
90
3
90
103
90
101
90
75
90
3
90
132
90
102
90
103
90
3
90
131
90
129
90
130
90
3
90
131
90
130
90
95
90
3
90
108
90
393
90
394
90
3
90
102
90
132
90
131
90
3
90
132
90
103
90
105
90
3
90
131
90
108
90
394
90
3
90
105
90
104
90
78
90
3
90
102
90
100
90
101
90
3
90
100
90
67
90
101
90
3
90
395
90
396
90
130
90
3
90
309
90
37
90
36
90
3
90
16
90
17
90
117
90
3
90
16
90
117
90
581
90
3
90
579
90
580
90
581
90
3
90
117
90
17
90
581
90
3
90
581
90
580
90
16
90
3
90
37
90
146
90
36
90
3
90
573
90
39
90
572
90
3
90
16
90
575
90
17
90
3
90
17
90
575
90
573
90
3
90
573
90
572
90
17
90
3
90
310
90
38
90
573
90
3
90
580
90
584
90
16
90
3
90
36
90
146
90
35
90
3
90
583
90
582
90
561
90
3
90
579
90
581
90
17
90
3
90
395
90
129
90
394
90
3
90
561
90
395
90
583
90
3
90
395
90
561
90
396
90
3
90
579
90
582
90
583
90
3
90
580
90
583
90
587
90
3
90
583
90
395
90
394
90
3
90
586
90
394
90
393
90
3
90
586
90
583
90
394
90
3
90
394
90
129
90
131
90
3
90
579
90
583
90
580
90
3
90
129
90
395
90
130
90
3
90
579
90
17
90
582
90
3
90
582
90
56
90
562
90
3
90
587
90
583
90
586
90
3
90
131
90
132
90
108
90
3
90
36
90
35
90
309
90
3
90
562
90
17
90
560
90
3
90
37
90
309
90
143
90
3
90
144
90
2
90
25
90
3
90
26
90
144
90
25
90
3
90
140
90
144
90
145
90
3
90
143
90
142
90
37
90
3
90
145
90
146
90
140
90
3
90
142
90
141
90
37
90
3
90
141
90
146
90
37
90
3
90
2
90
144
90
138
90
3
90
311
90
310
90
573
90
3
90
143
90
310
90
142
90
3
90
143
90
309
90
310
90
3
90
142
90
310
90
141
90
3
90
38
90
310
90
309
90
3
90
3
90
25
90
2
90
3
90
576
90
574
90
575
90
3
90
38
90
309
90
573
90
3
90
584
90
587
90
589
90
3
90
576
90
584
90
585
90
3
90
584
90
580
90
587
90
3
90
16
90
584
90
576
90
3
90
577
90
312
90
311
90
3
90
577
90
311
90
573
90
3
90
578
90
577
90
574
90
3
90
574
90
576
90
578
90
3
90
577
90
573
90
574
90
3
90
578
90
576
90
585
90
3
90
591
90
578
90
585
90
3
90
574
90
573
90
575
90
3
90
576
90
575
90
16
90
3
90
310
90
311
90
141
90
3
90
140
90
134
90
139
90
3
90
144
90
139
90
138
90
3
90
135
90
140
90
141
90
3
90
135
90
311
90
312
90
3
90
141
90
140
90
146
90
3
90
311
90
135
90
141
90
3
90
1
90
138
90
133
90
3
90
133
90
138
90
139
90
3
90
314
90
134
90
135
90
3
90
134
90
133
90
139
90
3
90
134
90
140
90
135
90
3
90
158
90
159
90
133
90
3
90
135
90
312
90
136
90
3
90
140
90
139
90
144
90
3
90
137
90
313
90
136
90
3
90
137
90
136
90
312
90
3
90
592
90
313
90
312
90
3
90
578
90
591
90
592
90
3
90
312
90
578
90
592
90
3
90
313
90
137
90
312
90
3
90
135
90
313
90
314
90
3
90
133
90
159
90
1
90
3
90
134
90
158
90
133
90
3
90
134
90
314
90
315
90
3
90
600
90
314
90
313
90
3
90
164
90
1
90
159
90
3
90
592
90
597
90
313
90
3
90
135
90
136
90
313
90
3
90
312
90
577
90
578
90
3
90
2
90
138
90
1
90
3
90
128
90
593
90
587
90
3
90
585
90
584
90
591
90
3
90
589
90
587
90
127
90
3
90
590
90
588
90
589
90
3
90
127
90
593
90
589
90
3
90
127
90
587
90
593
90
3
90
588
90
598
90
591
90
3
90
600
90
597
90
601
90
3
90
597
90
600
90
313
90
3
90
597
90
599
90
601
90
3
90
598
90
599
90
592
90
3
90
597
90
592
90
599
90
3
90
598
90
603
90
599
90
3
90
589
90
588
90
584
90
3
90
592
90
591
90
598
90
3
90
593
90
594
90
589
90
3
90
586
90
593
90
128
90
3
90
602
90
15
90
590
90
3
90
596
90
590
90
589
90
3
90
602
90
590
90
596
90
3
90
584
90
588
90
591
90
3
90
588
90
15
90
598
90
3
90
603
90
598
90
15
90
3
90
609
90
608
90
604
90
3
90
603
90
15
90
604
90
3
90
15
90
588
90
590
90
3
90
599
90
603
90
601
90
3
90
593
90
393
90
392
90
3
90
594
90
596
90
589
90
3
90
128
90
587
90
586
90
3
90
604
90
605
90
603
90
3
90
157
90
315
90
316
90
3
90
601
90
316
90
315
90
3
90
317
90
316
90
606
90
3
90
601
90
605
90
316
90
3
90
601
90
315
90
600
90
3
90
157
90
316
90
317
90
3
90
159
90
158
90
164
90
3
90
158
90
163
90
164
90
3
90
1
90
167
90
166
90
3
90
163
90
158
90
157
90
3
90
134
90
157
90
158
90
3
90
164
90
167
90
1
90
3
90
156
90
157
90
317
90
3
90
157
90
134
90
315
90
3
90
165
90
317
90
606
90
3
90
607
90
606
90
605
90
3
90
607
90
610
90
606
90
3
90
605
90
608
90
607
90
3
90
608
90
605
90
604
90
3
90
610
90
165
90
606
90
3
90
168
90
166
90
167
90
3
90
167
90
164
90
163
90
3
90
156
90
319
90
157
90
3
90
165
90
156
90
317
90
3
90
163
90
157
90
162
90
3
90
165
90
318
90
156
90
3
90
608
90
610
90
607
90
3
90
606
90
316
90
605
90
3
90
605
90
601
90
603
90
3
90
163
90
168
90
167
90
3
90
604
90
15
90
613
90
3
90
315
90
314
90
600
90
3
90
393
90
593
90
586
90
3
90
211
90
1
90
166
90
3
90
132
90
105
90
106
90
3
90
107
90
108
90
132
90
3
90
79
90
108
90
107
90
3
90
391
90
595
90
392
90
3
90
109
90
393
90
108
90
3
90
79
90
107
90
106
90
3
90
594
90
593
90
392
90
3
90
596
90
614
90
602
90
3
90
620
90
614
90
594
90
3
90
621
90
620
90
595
90
3
90
594
90
595
90
620
90
3
90
595
90
594
90
392
90
3
90
620
90
619
90
614
90
3
90
392
90
393
90
109
90
3
90
106
90
107
90
132
90
3
90
391
90
392
90
110
90
3
90
81
90
109
90
108
90
3
90
79
90
106
90
105
90
3
90
80
90
79
90
78
90
3
90
78
90
77
90
94
90
3
90
110
90
392
90
109
90
3
90
390
90
621
90
391
90
3
90
595
90
391
90
621
90
3
90
621
90
390
90
389
90
3
90
390
90
120
90
389
90
3
90
111
90
390
90
391
90
3
90
621
90
619
90
620
90
3
90
388
90
622
90
389
90
3
90
78
90
79
90
105
90
3
90
78
90
104
90
77
90
3
90
389
90
622
90
621
90
3
90
15
90
617
90
613
90
3
90
615
90
617
90
602
90
3
90
618
90
617
90
615
90
3
90
614
90
615
90
602
90
3
90
614
90
616
90
615
90
3
90
615
90
625
90
618
90
3
90
609
90
604
90
14
90
3
90
604
90
613
90
14
90
3
90
618
90
627
90
14
90
3
90
613
90
618
90
14
90
3
90
618
90
613
90
617
90
3
90
14
90
626
90
609
90
3
90
625
90
615
90
616
90
3
90
15
90
602
90
617
90
3
90
625
90
616
90
623
90
3
90
619
90
623
90
616
90
3
90
636
90
637
90
623
90
3
90
619
90
622
90
623
90
3
90
622
90
619
90
621
90
3
90
624
90
625
90
623
90
3
90
624
90
638
90
632
90
3
90
624
90
632
90
625
90
3
90
640
90
639
90
637
90
3
90
624
90
637
90
639
90
3
90
624
90
623
90
637
90
3
90
627
90
618
90
632
90
3
90
622
90
636
90
623
90
3
90
618
90
625
90
632
90
3
90
616
90
614
90
619
90
3
90
638
90
624
90
639
90
3
90
108
90
79
90
80
90
3
90
596
90
594
90
614
90
3
90
109
90
81
90
110
90
3
90
80
90
82
90
81
90
3
90
89
90
86
90
87
90
3
90
87
90
82
90
80
90
3
90
87
90
80
90
88
90
3
90
86
90
85
90
87
90
3
90
110
90
82
90
83
90
3
90
83
90
82
90
87
90
3
90
85
90
111
90
84
90
3
90
83
90
85
90
84
90
3
90
83
90
87
90
85
90
3
90
110
90
83
90
84
90
3
90
112
90
85
90
86
90
3
90
110
90
81
90
82
90
3
90
91
90
114
90
90
90
3
90
78
90
88
90
80
90
3
90
93
90
115
90
92
90
3
90
92
90
88
90
78
90
3
90
88
90
92
90
91
90
3
90
92
90
114
90
91
90
3
90
112
90
86
90
89
90
3
90
90
90
89
90
88
90
3
90
89
90
90
90
113
90
3
90
90
90
114
90
113
90
3
90
90
90
88
90
91
90
3
90
88
90
89
90
87
90
3
90
123
90
112
90
113
90
3
90
78
90
93
90
92
90
3
90
93
90
78
90
94
90
3
90
112
90
89
90
113
90
3
90
636
90
622
90
388
90
3
90
642
90
637
90
636
90
3
90
641
90
636
90
388
90
3
90
388
90
119
90
387
90
3
90
387
90
119
90
386
90
3
90
387
90
641
90
388
90
3
90
641
90
643
90
642
90
3
90
640
90
637
90
642
90
3
90
118
90
657
90
641
90
3
90
387
90
118
90
641
90
3
90
642
90
636
90
641
90
3
90
644
90
640
90
642
90
3
90
120
90
390
90
111
90
3
90
110
90
111
90
391
90
3
90
122
90
111
90
112
90
3
90
84
90
111
90
110
90
3
90
121
90
385
90
120
90
3
90
111
90
122
90
121
90
3
90
123
90
122
90
112
90
3
90
120
90
111
90
121
90
3
90
118
90
387
90
657
90
3
90
387
90
386
90
657
90
3
90
120
90
385
90
386
90
3
90
119
90
120
90
386
90
3
90
388
90
389
90
119
90
3
90
661
90
657
90
386
90
3
90
384
90
121
90
122
90
3
90
389
90
120
90
119
90
3
90
111
90
85
90
112
90
3
90
639
90
640
90
644
90
3
90
94
90
116
90
93
90
3
90
108
90
80
90
81
90
3
90
290
90
94
90
77
90
3
90
641
90
657
90
643
90
3
90
626
90
629
90
612
90
3
90
626
90
612
90
609
90
3
90
626
90
627
90
13
90
3
90
13
90
627
90
632
90
3
90
610
90
608
90
612
90
3
90
13
90
629
90
626
90
3
90
165
90
611
90
318
90
3
90
628
90
611
90
610
90
3
90
628
90
630
90
611
90
3
90
610
90
629
90
628
90
3
90
629
90
610
90
612
90
3
90
628
90
629
90
634
90
3
90
629
90
13
90
633
90
3
90
626
90
14
90
627
90
3
90
638
90
639
90
650
90
3
90
650
90
639
90
651
90
3
90
650
90
651
90
652
90
3
90
644
90
651
90
639
90
3
90
642
90
643
90
644
90
3
90
650
90
647
90
646
90
3
90
645
90
648
90
633
90
3
90
633
90
13
90
645
90
3
90
13
90
647
90
645
90
3
90
638
90
650
90
646
90
3
90
647
90
13
90
646
90
3
90
647
90
653
90
645
90
3
90
644
90
655
90
651
90
3
90
646
90
13
90
638
90
3
90
13
90
632
90
638
90
3
90
629
90
633
90
634
90
3
90
319
90
318
90
631
90
3
90
631
90
318
90
611
90
3
90
631
90
635
90
319
90
3
90
630
90
631
90
611
90
3
90
630
90
628
90
634
90
3
90
631
90
630
90
649
90
3
90
157
90
319
90
320
90
3
90
163
90
162
90
168
90
3
90
321
90
162
90
320
90
3
90
320
90
162
90
157
90
3
90
635
90
320
90
319
90
3
90
162
90
169
90
168
90
3
90
649
90
630
90
634
90
3
90
319
90
156
90
318
90
3
90
656
90
635
90
649
90
3
90
649
90
635
90
631
90
3
90
674
90
656
90
649
90
3
90
633
90
648
90
634
90
3
90
649
90
634
90
648
90
3
90
649
90
648
90
654
90
3
90
321
90
161
90
162
90
3
90
322
90
161
90
321
90
3
90
321
90
656
90
322
90
3
90
656
90
676
90
322
90
3
90
656
90
321
90
635
90
3
90
160
90
161
90
322
90
3
90
659
90
654
90
653
90
3
90
635
90
321
90
320
90
3
90
648
90
645
90
653
90
3
90
161
90
169
90
162
90
3
90
655
90
644
90
643
90
3
90
611
90
165
90
610
90
3
90
652
90
655
90
663
90
3
90
651
90
655
90
652
90
3
90
661
90
662
90
658
90
3
90
657
90
658
90
643
90
3
90
657
90
661
90
658
90
3
90
655
90
658
90
662
90
3
90
660
90
647
90
652
90
3
90
652
90
647
90
650
90
3
90
12
90
659
90
660
90
3
90
659
90
653
90
647
90
3
90
663
90
660
90
652
90
3
90
653
90
654
90
648
90
3
90
384
90
661
90
385
90
3
90
655
90
643
90
658
90
3
90
662
90
665
90
663
90
3
90
655
90
662
90
663
90
3
90
669
90
671
90
665
90
3
90
669
90
662
90
383
90
3
90
384
90
662
90
661
90
3
90
669
90
665
90
662
90
3
90
667
90
12
90
664
90
3
90
12
90
660
90
664
90
3
90
667
90
664
90
666
90
3
90
663
90
665
90
666
90
3
90
664
90
663
90
666
90
3
90
666
90
668
90
677
90
3
90
668
90
666
90
665
90
3
90
663
90
664
90
660
90
3
90
384
90
385
90
121
90
3
90
654
90
659
90
12
90
3
90
676
90
683
90
322
90
3
90
675
90
676
90
674
90
3
90
674
90
654
90
675
90
3
90
675
90
654
90
12
90
3
90
674
90
649
90
654
90
3
90
682
90
683
90
676
90
3
90
160
90
323
90
169
90
3
90
160
90
169
90
161
90
3
90
160
90
683
90
685
90
3
90
172
90
169
90
170
90
3
90
160
90
322
90
683
90
3
90
169
90
172
90
168
90
3
90
682
90
676
90
675
90
3
90
656
90
674
90
676
90
3
90
683
90
682
90
686
90
3
90
679
90
682
90
675
90
3
90
679
90
688
90
682
90
3
90
667
90
678
90
680
90
3
90
675
90
12
90
679
90
3
90
714
90
702
90
699
90
3
90
171
90
170
90
323
90
3
90
323
90
170
90
169
90
3
90
685
90
684
90
690
90
3
90
685
90
323
90
160
90
3
90
685
90
690
90
324
90
3
90
687
90
690
90
684
90
3
90
683
90
684
90
685
90
3
90
325
90
172
90
170
90
3
90
677
90
678
90
667
90
3
90
684
90
683
90
686
90
3
90
666
90
677
90
667
90
3
90
171
90
324
90
170
90
3
90
662
90
384
90
383
90
3
90
647
90
660
90
659
90
3
90
661
90
386
90
385
90
3
90
166
90
168
90
172
90
3
90
123
90
384
90
122
90
3
90
612
90
608
90
609
90
3
90
104
90
76
90
77
90
3
90
211
90
166
90
172
90
3
90
8
90
151
90
7
90
3
90
124
90
113
90
114
90
3
90
114
90
92
90
115
90
3
90
93
90
116
90
115
90
3
90
8
90
9
90
290
90
3
90
8
90
290
90
75
90
3
90
383
90
384
90
123
90
3
90
677
90
668
90
678
90
3
90
668
90
665
90
671
90
3
90
671
90
691
90
668
90
3
90
672
90
671
90
669
90
3
90
672
90
669
90
670
90
3
90
671
90
672
90
673
90
3
90
114
90
125
90
124
90
3
90
383
90
670
90
669
90
3
90
94
90
289
90
116
90
3
90
289
90
94
90
9
90
3
90
126
90
115
90
116
90
3
90
289
90
126
90
116
90
3
90
289
90
9
90
126
90
3
90
124
90
123
90
113
90
3
90
381
90
670
90
382
90
3
90
382
90
670
90
383
90
3
90
123
90
124
90
382
90
3
90
125
90
381
90
382
90
3
90
383
90
123
90
382
90
3
90
673
90
672
90
670
90
3
90
696
90
673
90
381
90
3
90
115
90
126
90
114
90
3
90
673
90
670
90
381
90
3
90
688
90
689
90
686
90
3
90
688
90
679
90
681
90
3
90
681
90
689
90
688
90
3
90
691
90
678
90
668
90
3
90
12
90
667
90
680
90
3
90
679
90
12
90
701
90
3
90
687
90
684
90
686
90
3
90
171
90
323
90
324
90
3
90
705
90
690
90
687
90
3
90
323
90
685
90
324
90
3
90
689
90
687
90
686
90
3
90
325
90
324
90
690
90
3
90
692
90
693
90
678
90
3
90
688
90
686
90
682
90
3
90
681
90
694
90
689
90
3
90
681
90
679
90
701
90
3
90
694
90
704
90
689
90
3
90
693
90
680
90
678
90
3
90
673
90
692
90
691
90
3
90
694
90
681
90
701
90
3
90
703
90
705
90
687
90
3
90
325
90
690
90
706
90
3
90
706
90
326
90
325
90
3
90
705
90
706
90
690
90
3
90
689
90
703
90
687
90
3
90
706
90
705
90
707
90
3
90
699
90
680
90
693
90
3
90
692
90
678
90
691
90
3
90
691
90
671
90
673
90
3
90
172
90
325
90
173
90
3
90
124
90
125
90
382
90
3
90
94
90
290
90
9
90
3
90
697
90
673
90
696
90
3
90
673
90
697
90
692
90
3
90
698
90
699
90
697
90
3
90
380
90
696
90
381
90
3
90
700
90
696
90
380
90
3
90
697
90
696
90
698
90
3
90
689
90
704
90
703
90
3
90
704
90
694
90
695
90
3
90
695
90
709
90
704
90
3
90
701
90
699
90
702
90
3
90
699
90
692
90
697
90
3
90
680
90
699
90
701
90
3
90
182
90
379
90
380
90
3
90
381
90
125
90
380
90
3
90
125
90
182
90
380
90
3
90
698
90
696
90
700
90
3
90
378
90
700
90
379
90
3
90
379
90
700
90
380
90
3
90
180
90
377
90
378
90
3
90
715
90
698
90
700
90
3
90
723
90
724
90
721
90
3
90
723
90
721
90
699
90
3
90
715
90
727
90
723
90
3
90
700
90
378
90
715
90
3
90
715
90
723
90
698
90
3
90
378
90
738
90
715
90
3
90
379
90
181
90
378
90
3
90
698
90
723
90
699
90
3
90
126
90
125
90
114
90
3
90
699
90
721
90
720
90
3
90
695
90
701
90
709
90
3
90
701
90
695
90
694
90
3
90
726
90
702
90
714
90
3
90
12
90
680
90
701
90
3
90
714
90
699
90
720
90
3
90
714
90
725
90
726
90
3
90
709
90
719
90
710
90
3
90
704
90
710
90
703
90
3
90
718
90
709
90
701
90
3
90
701
90
702
90
717
90
3
90
710
90
704
90
709
90
3
90
708
90
703
90
710
90
3
90
725
90
714
90
720
90
3
90
708
90
705
90
703
90
3
90
727
90
738
90
739
90
3
90
724
90
723
90
727
90
3
90
376
90
738
90
377
90
3
90
377
90
738
90
378
90
3
90
715
90
738
90
727
90
3
90
377
90
178
90
376
90
3
90
722
90
741
90
725
90
3
90
720
90
722
90
725
90
3
90
741
90
722
90
724
90
3
90
724
90
727
90
740
90
3
90
720
90
721
90
722
90
3
90
737
90
726
90
725
90
3
90
178
90
375
90
376
90
3
90
722
90
721
90
724
90
3
90
178
90
377
90
180
90
3
90
738
90
376
90
739
90
3
90
126
90
183
90
125
90
3
90
693
90
692
90
699
90
3
90
126
90
9
90
183
90
3
90
726
90
734
90
702
90
3
90
707
90
711
90
326
90
3
90
706
90
707
90
326
90
3
90
712
90
707
90
708
90
3
90
713
90
710
90
728
90
3
90
708
90
707
90
705
90
3
90
710
90
713
90
708
90
3
90
731
90
732
90
712
90
3
90
732
90
711
90
707
90
3
90
731
90
733
90
732
90
3
90
708
90
713
90
712
90
3
90
732
90
707
90
712
90
3
90
731
90
712
90
713
90
3
90
728
90
730
90
713
90
3
90
327
90
326
90
711
90
3
90
718
90
736
90
719
90
3
90
728
90
710
90
719
90
3
90
716
90
717
90
734
90
3
90
718
90
719
90
709
90
3
90
701
90
717
90
716
90
3
90
748
90
749
90
11
90
3
90
736
90
747
90
729
90
3
90
701
90
736
90
718
90
3
90
735
90
748
90
716
90
3
90
735
90
716
90
734
90
3
90
734
90
726
90
735
90
3
90
766
90
736
90
701
90
3
90
726
90
737
90
735
90
3
90
729
90
728
90
719
90
3
90
717
90
702
90
734
90
3
90
719
90
736
90
729
90
3
90
327
90
176
90
328
90
3
90
760
90
711
90
733
90
3
90
329
90
328
90
760
90
3
90
760
90
176
90
327
90
3
90
327
90
711
90
760
90
3
90
328
90
176
90
760
90
3
90
174
90
212
90
173
90
3
90
173
90
326
90
174
90
3
90
329
90
174
90
175
90
3
90
328
90
175
90
327
90
3
90
174
90
327
90
175
90
3
90
328
90
329
90
175
90
3
90
329
90
760
90
733
90
3
90
327
90
174
90
326
90
3
90
730
90
762
90
731
90
3
90
732
90
733
90
711
90
3
90
730
90
729
90
752
90
3
90
729
90
764
90
752
90
3
90
730
90
731
90
713
90
3
90
752
90
762
90
730
90
3
90
329
90
213
90
174
90
3
90
329
90
330
90
213
90
3
90
761
90
330
90
329
90
3
90
731
90
762
90
761
90
3
90
329
90
733
90
761
90
3
90
761
90
762
90
773
90
3
90
763
90
762
90
752
90
3
90
761
90
733
90
731
90
3
90
730
90
728
90
729
90
3
90
213
90
212
90
174
90
3
90
746
90
735
90
737
90
3
90
325
90
326
90
173
90
3
90
750
90
735
90
746
90
3
90
741
90
737
90
725
90
3
90
745
90
741
90
740
90
3
90
739
90
376
90
742
90
3
90
741
90
724
90
740
90
3
90
735
90
750
90
748
90
3
90
764
90
747
90
765
90
3
90
747
90
764
90
729
90
3
90
747
90
766
90
767
90
3
90
766
90
747
90
736
90
3
90
749
90
759
90
11
90
3
90
701
90
767
90
766
90
3
90
749
90
748
90
750
90
3
90
737
90
741
90
744
90
3
90
740
90
743
90
745
90
3
90
739
90
742
90
743
90
3
90
742
90
754
90
743
90
3
90
177
90
375
90
742
90
3
90
177
90
376
90
375
90
3
90
743
90
753
90
745
90
3
90
758
90
751
90
746
90
3
90
746
90
737
90
744
90
3
90
758
90
746
90
744
90
3
90
744
90
745
90
755
90
3
90
744
90
741
90
745
90
3
90
750
90
746
90
751
90
3
90
374
90
742
90
375
90
3
90
743
90
740
90
739
90
3
90
177
90
742
90
376
90
3
90
751
90
749
90
750
90
3
90
773
90
771
90
775
90
3
90
771
90
773
90
762
90
3
90
771
90
772
90
775
90
3
90
770
90
763
90
752
90
3
90
772
90
762
90
763
90
3
90
775
90
772
90
776
90
3
90
331
90
215
90
330
90
3
90
773
90
330
90
761
90
3
90
207
90
214
90
215
90
3
90
215
90
214
90
213
90
3
90
773
90
774
90
330
90
3
90
215
90
213
90
330
90
3
90
763
90
776
90
772
90
3
90
762
90
772
90
771
90
3
90
765
90
768
90
770
90
3
90
767
90
765
90
747
90
3
90
768
90
765
90
767
90
3
90
701
90
790
90
767
90
3
90
764
90
765
90
770
90
3
90
773
90
775
90
774
90
3
90
216
90
215
90
331
90
3
90
208
90
207
90
215
90
3
90
331
90
774
90
217
90
3
90
331
90
217
90
332
90
3
90
331
90
330
90
774
90
3
90
215
90
216
90
208
90
3
90
777
90
774
90
775
90
3
90
776
90
763
90
770
90
3
90
769
90
759
90
749
90
3
90
206
90
213
90
214
90
3
90
769
90
749
90
751
90
3
90
752
90
764
90
770
90
3
90
740
90
727
90
739
90
3
90
214
90
207
90
206
90
3
90
375
90
178
90
179
90
3
90
172
90
173
90
211
90
3
90
786
90
785
90
754
90
3
90
374
90
754
90
742
90
3
90
375
90
179
90
374
90
3
90
179
90
373
90
374
90
3
90
743
90
754
90
753
90
3
90
374
90
756
90
754
90
3
90
755
90
769
90
758
90
3
90
755
90
758
90
744
90
3
90
778
90
755
90
753
90
3
90
753
90
754
90
784
90
3
90
755
90
745
90
753
90
3
90
784
90
754
90
785
90
3
90
181
90
179
90
180
90
3
90
180
90
179
90
178
90
3
90
756
90
374
90
373
90
3
90
754
90
756
90
757
90
3
90
227
90
179
90
181
90
3
90
788
90
756
90
373
90
3
90
181
90
180
90
378
90
3
90
757
90
788
90
789
90
3
90
782
90
785
90
786
90
3
90
786
90
754
90
787
90
3
90
789
90
788
90
787
90
3
90
787
90
754
90
789
90
3
90
754
90
757
90
789
90
3
90
787
90
788
90
786
90
3
90
782
90
786
90
788
90
3
90
226
90
373
90
179
90
3
90
181
90
379
90
182
90
3
90
756
90
788
90
757
90
3
90
800
90
11
90
759
90
3
90
793
90
769
90
755
90
3
90
793
90
794
90
769
90
3
90
779
90
778
90
753
90
3
90
11
90
716
90
748
90
3
90
793
90
778
90
783
90
3
90
777
90
776
90
768
90
3
90
776
90
770
90
768
90
3
90
777
90
768
90
791
90
3
90
768
90
790
90
791
90
3
90
767
90
790
90
768
90
3
90
332
90
774
90
777
90
3
90
783
90
778
90
779
90
3
90
778
90
793
90
755
90
3
90
782
90
780
90
781
90
3
90
753
90
780
90
779
90
3
90
781
90
784
90
782
90
3
90
785
90
782
90
784
90
3
90
780
90
753
90
781
90
3
90
779
90
782
90
783
90
3
90
791
90
799
90
777
90
3
90
790
90
701
90
791
90
3
90
801
90
794
90
783
90
3
90
759
90
769
90
794
90
3
90
793
90
783
90
794
90
3
90
800
90
759
90
794
90
3
90
782
90
788
90
803
90
3
90
780
90
782
90
779
90
3
90
753
90
784
90
781
90
3
90
701
90
810
90
791
90
3
90
227
90
181
90
182
90
3
90
777
90
775
90
776
90
3
90
373
90
226
90
225
90
3
90
226
90
179
90
227
90
3
90
228
90
220
90
227
90
3
90
226
90
227
90
220
90
3
90
227
90
183
90
229
90
3
90
219
90
226
90
220
90
3
90
218
90
788
90
225
90
3
90
225
90
788
90
373
90
3
90
218
90
219
90
372
90
3
90
226
90
218
90
225
90
3
90
218
90
226
90
219
90
3
90
783
90
782
90
802
90
3
90
220
90
370
90
219
90
3
90
182
90
183
90
227
90
3
90
230
90
222
90
229
90
3
90
230
90
229
90
183
90
3
90
223
90
230
90
231
90
3
90
239
90
224
90
231
90
3
90
229
90
228
90
227
90
3
90
231
90
224
90
223
90
3
90
220
90
228
90
221
90
3
90
221
90
228
90
229
90
3
90
220
90
221
90
369
90
3
90
222
90
221
90
229
90
3
90
222
90
230
90
223
90
3
90
370
90
220
90
369
90
3
90
367
90
223
90
366
90
3
90
230
90
183
90
231
90
3
90
231
90
183
90
241
90
3
90
221
90
222
90
368
90
3
90
806
90
801
90
802
90
3
90
801
90
783
90
802
90
3
90
822
90
826
90
802
90
3
90
782
90
803
90
802
90
3
90
788
90
372
90
803
90
3
90
802
90
803
90
822
90
3
90
805
90
815
90
800
90
3
90
800
90
794
90
805
90
3
90
826
90
828
90
806
90
3
90
805
90
801
90
804
90
3
90
806
90
802
90
826
90
3
90
804
90
801
90
806
90
3
90
823
90
803
90
372
90
3
90
805
90
794
90
801
90
3
90
822
90
824
90
825
90
3
90
803
90
824
90
822
90
3
90
831
90
823
90
371
90
3
90
803
90
823
90
824
90
3
90
823
90
372
90
371
90
3
90
824
90
823
90
825
90
3
90
831
90
833
90
832
90
3
90
831
90
832
90
823
90
3
90
370
90
369
90
830
90
3
90
830
90
831
90
371
90
3
90
830
90
371
90
370
90
3
90
830
90
369
90
831
90
3
90
370
90
371
90
219
90
3
90
827
90
826
90
822
90
3
90
371
90
372
90
219
90
3
90
716
90
11
90
701
90
3
90
367
90
222
90
223
90
3
90
788
90
218
90
372
90
3
90
183
90
182
90
125
90
3
90
825
90
823
90
832
90
3
90
216
90
332
90
209
90
3
90
777
90
210
90
332
90
3
90
777
90
809
90
812
90
3
90
807
90
809
90
777
90
3
90
217
90
774
90
332
90
3
90
332
90
210
90
792
90
3
90
792
90
210
90
777
90
3
90
333
90
209
90
332
90
3
90
812
90
809
90
813
90
3
90
792
90
777
90
795
90
3
90
777
90
812
90
795
90
3
90
812
90
814
90
795
90
3
90
807
90
813
90
809
90
3
90
208
90
216
90
209
90
3
90
701
90
11
90
810
90
3
90
11
90
800
90
817
90
3
90
817
90
818
90
11
90
3
90
815
90
817
90
800
90
3
90
805
90
804
90
815
90
3
90
820
90
843
90
11
90
3
90
807
90
799
90
808
90
3
90
811
90
808
90
799
90
3
90
11
90
843
90
811
90
3
90
810
90
811
90
799
90
3
90
811
90
810
90
11
90
3
90
845
90
808
90
811
90
3
90
816
90
817
90
815
90
3
90
799
90
807
90
777
90
3
90
810
90
799
90
791
90
3
90
813
90
807
90
808
90
3
90
208
90
209
90
333
90
3
90
332
90
796
90
333
90
3
90
204
90
796
90
797
90
3
90
796
90
332
90
797
90
3
90
332
90
792
90
797
90
3
90
797
90
798
90
204
90
3
90
201
90
208
90
333
90
3
90
333
90
203
90
201
90
3
90
334
90
203
90
204
90
3
90
333
90
204
90
203
90
3
90
204
90
333
90
796
90
3
90
334
90
202
90
203
90
3
90
798
90
797
90
792
90
3
90
201
90
207
90
208
90
3
90
813
90
844
90
814
90
3
90
814
90
798
90
795
90
3
90
845
90
862
90
844
90
3
90
845
90
844
90
808
90
3
90
814
90
812
90
813
90
3
90
844
90
813
90
808
90
3
90
798
90
846
90
204
90
3
90
334
90
204
90
846
90
3
90
846
90
844
90
856
90
3
90
798
90
844
90
846
90
3
90
844
90
798
90
814
90
3
90
846
90
335
90
334
90
3
90
853
90
845
90
843
90
3
90
795
90
798
90
792
90
3
90
811
90
843
90
845
90
3
90
334
90
191
90
202
90
3
90
821
90
815
90
804
90
3
90
216
90
331
90
332
90
3
90
834
90
835
90
821
90
3
90
829
90
834
90
804
90
3
90
838
90
829
90
842
90
3
90
829
90
806
90
842
90
3
90
806
90
829
90
804
90
3
90
838
90
834
90
829
90
3
90
819
90
820
90
818
90
3
90
818
90
820
90
11
90
3
90
816
90
821
90
836
90
3
90
816
90
818
90
817
90
3
90
815
90
821
90
816
90
3
90
818
90
816
90
819
90
3
90
828
90
841
90
842
90
3
90
834
90
821
90
804
90
3
90
840
90
841
90
839
90
3
90
828
90
826
90
839
90
3
90
833
90
827
90
825
90
3
90
840
90
839
90
826
90
3
90
828
90
842
90
806
90
3
90
827
90
841
90
840
90
3
90
841
90
848
90
838
90
3
90
841
90
838
90
842
90
3
90
873
90
833
90
369
90
3
90
827
90
833
90
841
90
3
90
825
90
832
90
833
90
3
90
833
90
868
90
841
90
3
90
833
90
831
90
369
90
3
90
839
90
841
90
828
90
3
90
840
90
826
90
827
90
3
90
838
90
847
90
834
90
3
90
820
90
837
90
854
90
3
90
854
90
855
90
843
90
3
90
849
90
836
90
835
90
3
90
816
90
836
90
819
90
3
90
836
90
821
90
835
90
3
90
855
90
854
90
865
90
3
90
862
90
853
90
863
90
3
90
853
90
862
90
845
90
3
90
860
90
861
90
853
90
3
90
860
90
843
90
855
90
3
90
853
90
843
90
860
90
3
90
855
90
861
90
860
90
3
90
819
90
836
90
852
90
3
90
819
90
837
90
820
90
3
90
841
90
868
90
848
90
3
90
868
90
833
90
873
90
3
90
874
90
875
90
873
90
3
90
874
90
873
90
369
90
3
90
874
90
369
90
368
90
3
90
368
90
367
90
874
90
3
90
867
90
872
90
849
90
3
90
867
90
849
90
835
90
3
90
868
90
876
90
848
90
3
90
838
90
848
90
847
90
3
90
868
90
873
90
877
90
3
90
872
90
867
90
848
90
3
90
848
90
867
90
847
90
3
90
849
90
869
90
836
90
3
90
367
90
368
90
222
90
3
90
847
90
867
90
835
90
3
90
847
90
835
90
834
90
3
90
859
90
844
90
862
90
3
90
368
90
369
90
221
90
3
90
820
90
854
90
843
90
3
90
822
90
825
90
827
90
3
90
875
90
874
90
367
90
3
90
364
90
223
90
224
90
3
90
758
90
769
90
751
90
3
90
183
90
9
90
10
90
3
90
202
90
201
90
203
90
3
90
846
90
856
90
335
90
3
90
857
90
856
90
844
90
3
90
864
90
857
90
859
90
3
90
202
90
191
90
197
90
3
90
859
90
857
90
844
90
3
90
856
90
336
90
335
90
3
90
197
90
200
90
201
90
3
90
206
90
212
90
213
90
3
90
190
90
197
90
191
90
3
90
197
90
201
90
202
90
3
90
334
90
335
90
191
90
3
90
191
90
335
90
190
90
3
90
857
90
858
90
856
90
3
90
200
90
207
90
201
90
3
90
861
90
897
90
880
90
3
90
861
90
855
90
865
90
3
90
865
90
854
90
878
90
3
90
852
90
837
90
819
90
3
90
863
90
853
90
861
90
3
90
861
90
865
90
879
90
3
90
890
90
864
90
866
90
3
90
866
90
864
90
859
90
3
90
861
90
880
90
863
90
3
90
866
90
859
90
862
90
3
90
862
90
863
90
866
90
3
90
891
90
866
90
863
90
3
90
837
90
852
90
850
90
3
90
878
90
854
90
837
90
3
90
836
90
869
90
852
90
3
90
858
90
857
90
864
90
3
90
205
90
211
90
212
90
3
90
205
90
212
90
206
90
3
90
195
90
196
90
190
90
3
90
207
90
200
90
206
90
3
90
190
90
196
90
197
90
3
90
196
90
200
90
197
90
3
90
206
90
200
90
199
90
3
90
205
90
206
90
198
90
3
90
195
90
186
90
196
90
3
90
190
90
189
90
195
90
3
90
196
90
186
90
200
90
3
90
195
90
189
90
194
90
3
90
189
90
190
90
336
90
3
90
1
90
211
90
205
90
3
90
858
90
337
90
336
90
3
90
335
90
336
90
190
90
3
90
893
90
891
90
892
90
3
90
892
90
891
90
863
90
3
90
892
90
863
90
880
90
3
90
890
90
866
90
891
90
3
90
889
90
902
90
337
90
3
90
889
90
337
90
858
90
3
90
890
90
901
90
889
90
3
90
890
90
889
90
864
90
3
90
858
90
864
90
889
90
3
90
901
90
890
90
891
90
3
90
880
90
893
90
892
90
3
90
189
90
336
90
337
90
3
90
336
90
856
90
858
90
3
90
188
90
189
90
337
90
3
90
871
90
852
90
869
90
3
90
173
90
212
90
211
90
3
90
870
90
872
90
910
90
3
90
870
90
871
90
869
90
3
90
872
90
881
90
882
90
3
90
872
90
848
90
881
90
3
90
849
90
872
90
870
90
3
90
870
90
908
90
871
90
3
90
851
90
905
90
878
90
3
90
878
90
879
90
865
90
3
90
850
90
871
90
894
90
3
90
850
90
851
90
837
90
3
90
871
90
850
90
852
90
3
90
837
90
851
90
878
90
3
90
882
90
881
90
876
90
3
90
869
90
849
90
870
90
3
90
883
90
877
90
888
90
3
90
884
90
876
90
868
90
3
90
885
90
886
90
875
90
3
90
877
90
883
90
868
90
3
90
868
90
883
90
884
90
3
90
886
90
887
90
877
90
3
90
888
90
876
90
884
90
3
90
883
90
888
90
884
90
3
90
917
90
887
90
885
90
3
90
885
90
887
90
886
90
3
90
875
90
367
90
885
90
3
90
366
90
365
90
885
90
3
90
367
90
366
90
885
90
3
90
848
90
876
90
881
90
3
90
877
90
873
90
886
90
3
90
887
90
888
90
877
90
3
90
897
90
879
90
896
90
3
90
896
90
879
90
898
90
3
90
895
90
851
90
894
90
3
90
898
90
879
90
878
90
3
90
850
90
894
90
851
90
3
90
896
90
898
90
905
90
3
90
893
90
904
90
903
90
3
90
904
90
893
90
880
90
3
90
900
90
896
90
903
90
3
90
900
90
904
90
880
90
3
90
900
90
897
90
896
90
3
90
903
90
904
90
900
90
3
90
878
90
905
90
898
90
3
90
900
90
880
90
897
90
3
90
910
90
882
90
911
90
3
90
908
90
870
90
909
90
3
90
916
90
882
90
888
90
3
90
365
90
917
90
885
90
3
90
910
90
872
90
882
90
3
90
917
90
916
90
887
90
3
90
909
90
915
90
908
90
3
90
894
90
871
90
908
90
3
90
919
90
916
90
917
90
3
90
909
90
910
90
912
90
3
90
888
90
887
90
916
90
3
90
895
90
894
90
908
90
3
90
917
90
365
90
918
90
3
90
909
90
870
90
910
90
3
90
882
90
876
90
888
90
3
90
916
90
911
90
882
90
3
90
365
90
223
90
364
90
3
90
861
90
879
90
897
90
3
90
886
90
873
90
875
90
3
90
893
90
901
90
891
90
3
90
337
90
338
90
188
90
3
90
902
90
338
90
337
90
3
90
339
90
338
90
902
90
3
90
195
90
194
90
186
90
3
90
901
90
902
90
889
90
3
90
901
90
906
90
902
90
3
90
194
90
185
90
186
90
3
90
186
90
199
90
200
90
3
90
906
90
928
90
339
90
3
90
188
90
194
90
189
90
3
90
902
90
906
90
339
90
3
90
338
90
339
90
187
90
3
90
906
90
901
90
907
90
3
90
198
90
199
90
186
90
3
90
914
90
851
90
895
90
3
90
905
90
903
90
896
90
3
90
915
90
921
90
895
90
3
90
912
90
915
90
909
90
3
90
914
90
895
90
913
90
3
90
920
90
915
90
912
90
3
90
903
90
922
90
907
90
3
90
907
90
901
90
893
90
3
90
922
90
903
90
905
90
3
90
851
90
914
90
905
90
3
90
903
90
907
90
893
90
3
90
928
90
906
90
907
90
3
90
923
90
912
90
911
90
3
90
908
90
915
90
895
90
3
90
910
90
911
90
912
90
3
90
930
90
905
90
914
90
3
90
184
90
198
90
185
90
3
90
185
90
198
90
186
90
3
90
192
90
193
90
188
90
3
90
194
90
193
90
185
90
3
90
194
90
188
90
193
90
3
90
184
90
185
90
193
90
3
90
247
90
184
90
192
90
3
90
192
90
184
90
193
90
3
90
246
90
192
90
187
90
3
90
338
90
187
90
188
90
3
90
192
90
188
90
187
90
3
90
340
90
341
90
187
90
3
90
339
90
340
90
187
90
3
90
205
90
198
90
184
90
3
90
937
90
935
90
928
90
3
90
928
90
340
90
339
90
3
90
342
90
242
90
341
90
3
90
935
90
341
90
340
90
3
90
922
90
936
90
928
90
3
90
341
90
242
90
187
90
3
90
246
90
247
90
192
90
3
90
246
90
243
90
247
90
3
90
248
90
247
90
244
90
3
90
243
90
246
90
242
90
3
90
246
90
187
90
242
90
3
90
184
90
247
90
248
90
3
90
341
90
935
90
342
90
3
90
340
90
928
90
935
90
3
90
928
90
907
90
922
90
3
90
251
90
184
90
248
90
3
90
930
90
922
90
905
90
3
90
206
90
199
90
198
90
3
90
927
90
923
90
925
90
3
90
925
90
911
90
916
90
3
90
924
90
926
90
919
90
3
90
925
90
916
90
926
90
3
90
923
90
911
90
925
90
3
90
918
90
924
90
919
90
3
90
921
90
929
90
913
90
3
90
895
90
921
90
913
90
3
90
923
90
933
90
920
90
3
90
915
90
920
90
921
90
3
90
912
90
923
90
920
90
3
90
920
90
932
90
921
90
3
90
926
90
927
90
925
90
3
90
916
90
919
90
926
90
3
90
923
90
927
90
933
90
3
90
927
90
926
90
924
90
3
90
927
90
934
90
933
90
3
90
363
90
924
90
918
90
3
90
364
90
224
90
363
90
3
90
927
90
924
90
934
90
3
90
931
90
930
90
914
90
3
90
929
90
931
90
914
90
3
90
931
90
929
90
932
90
3
90
933
90
932
90
920
90
3
90
921
90
932
90
929
90
3
90
934
90
931
90
932
90
3
90
933
90
934
90
932
90
3
90
918
90
364
90
363
90
3
90
919
90
917
90
918
90
3
90
922
90
930
90
936
90
3
90
939
90
938
90
937
90
3
90
936
90
937
90
928
90
3
90
243
90
242
90
343
90
3
90
938
90
342
90
935
90
3
90
939
90
937
90
936
90
3
90
342
90
343
90
242
90
3
90
244
90
249
90
248
90
3
90
243
90
245
90
244
90
3
90
249
90
251
90
248
90
3
90
250
90
251
90
249
90
3
90
250
90
249
90
245
90
3
90
243
90
244
90
247
90
3
90
342
90
938
90
943
90
3
90
938
90
935
90
937
90
3
90
342
90
943
90
956
90
3
90
943
90
938
90
947
90
3
90
944
90
938
90
939
90
3
90
930
90
944
90
939
90
3
90
939
90
936
90
930
90
3
90
943
90
957
90
956
90
3
90
344
90
243
90
343
90
3
90
249
90
244
90
245
90
3
90
942
90
344
90
343
90
3
90
956
90
942
90
342
90
3
90
343
90
342
90
942
90
3
90
942
90
956
90
344
90
3
90
957
90
943
90
947
90
3
90
944
90
947
90
938
90
3
90
940
90
899
90
931
90
3
90
258
90
251
90
250
90
3
90
363
90
945
90
924
90
3
90
914
90
913
90
929
90
3
90
918
90
365
90
364
90
3
90
0
90
205
90
184
90
3
90
365
90
366
90
223
90
3
90
251
90
0
90
184
90
3
90
945
90
951
90
934
90
3
90
945
90
934
90
924
90
3
90
945
90
362
90
952
90
3
90
361
90
952
90
362
90
3
90
945
90
363
90
362
90
3
90
952
90
951
90
945
90
3
90
944
90
930
90
899
90
3
90
930
90
931
90
899
90
3
90
954
90
940
90
946
90
3
90
934
90
951
90
946
90
3
90
931
90
946
90
940
90
3
90
951
90
953
90
946
90
3
90
951
90
952
90
967
90
3
90
947
90
944
90
950
90
3
90
946
90
953
90
968
90
3
90
953
90
951
90
969
90
3
90
953
90
973
90
968
90
3
90
967
90
969
90
951
90
3
90
360
90
952
90
361
90
3
90
971
90
968
90
970
90
3
90
949
90
972
90
948
90
3
90
949
90
940
90
954
90
3
90
954
90
971
90
970
90
3
90
971
90
954
90
946
90
3
90
968
90
971
90
946
90
3
90
949
90
954
90
972
90
3
90
953
90
969
90
975
90
3
90
967
90
952
90
360
90
3
90
361
90
362
90
235
90
3
90
941
90
949
90
948
90
3
90
961
90
962
90
960
90
3
90
960
90
947
90
950
90
3
90
964
90
950
90
963
90
3
90
955
90
963
90
944
90
3
90
960
90
962
90
947
90
3
90
955
90
966
90
963
90
3
90
957
90
345
90
344
90
3
90
957
90
344
90
956
90
3
90
958
90
959
90
957
90
3
90
958
90
947
90
962
90
3
90
947
90
958
90
957
90
3
90
958
90
962
90
959
90
3
90
950
90
961
90
960
90
3
90
950
90
944
90
963
90
3
90
963
90
966
90
964
90
3
90
955
90
899
90
966
90
3
90
941
90
948
90
977
90
3
90
940
90
941
90
899
90
3
90
949
90
941
90
940
90
3
90
899
90
981
90
966
90
3
90
345
90
959
90
965
90
3
90
345
90
957
90
959
90
3
90
961
90
964
90
979
90
3
90
959
90
962
90
961
90
3
90
950
90
964
90
961
90
3
90
959
90
961
90
980
90
3
90
964
90
966
90
978
90
3
90
941
90
981
90
899
90
3
90
899
90
955
90
944
90
3
90
245
90
344
90
345
90
3
90
974
90
969
90
967
90
3
90
243
90
344
90
245
90
3
90
969
90
974
90
975
90
3
90
974
90
967
90
359
90
3
90
359
90
358
90
974
90
3
90
233
90
359
90
235
90
3
90
235
90
359
90
360
90
3
90
235
90
234
90
233
90
3
90
973
90
976
90
970
90
3
90
970
90
968
90
973
90
3
90
986
90
973
90
975
90
3
90
975
90
974
90
987
90
3
90
953
90
975
90
973
90
3
90
233
90
358
90
359
90
3
90
357
90
233
90
234
90
3
90
954
90
970
90
972
90
3
90
239
90
237
90
238
90
3
90
238
90
363
90
224
90
3
90
241
90
261
90
240
90
3
90
239
90
241
90
240
90
3
90
241
90
239
90
231
90
3
90
240
90
237
90
239
90
3
90
260
90
234
90
236
90
3
90
236
90
235
90
238
90
3
90
237
90
240
90
236
90
3
90
240
90
261
90
236
90
3
90
236
90
238
90
237
90
3
90
235
90
236
90
234
90
3
90
10
90
241
90
183
90
3
90
361
90
235
90
360
90
3
90
235
90
362
90
238
90
3
90
10
90
261
90
241
90
3
90
972
90
970
90
977
90
3
90
977
90
970
90
976
90
3
90
358
90
993
90
987
90
3
90
986
90
976
90
973
90
3
90
975
90
987
90
986
90
3
90
992
90
976
90
986
90
3
90
978
90
983
90
984
90
3
90
983
90
978
90
966
90
3
90
941
90
982
90
981
90
3
90
966
90
981
90
983
90
3
90
982
90
941
90
977
90
3
90
984
90
983
90
981
90
3
90
977
90
976
90
991
90
3
90
948
90
972
90
977
90
3
90
992
90
986
90
987
90
3
90
232
90
358
90
233
90
3
90
259
90
260
90
261
90
3
90
356
90
357
90
234
90
3
90
260
90
236
90
261
90
3
90
232
90
233
90
357
90
3
90
993
90
994
90
992
90
3
90
992
90
987
90
993
90
3
90
356
90
993
90
357
90
3
90
355
90
234
90
260
90
3
90
993
90
358
90
357
90
3
90
992
90
991
90
976
90
3
90
262
90
259
90
261
90
3
90
232
90
357
90
358
90
3
90
987
90
974
90
358
90
3
90
259
90
354
90
260
90
3
90
262
90
261
90
10
90
3
90
359
90
967
90
360
90
3
90
238
90
362
90
363
90
3
90
979
90
964
90
978
90
3
90
347
90
346
90
965
90
3
90
965
90
346
90
345
90
3
90
985
90
965
90
980
90
3
90
980
90
965
90
959
90
3
90
345
90
346
90
245
90
3
90
979
90
985
90
980
90
3
90
346
90
347
90
258
90
3
90
346
90
258
90
245
90
3
90
985
90
997
90
347
90
3
90
985
90
347
90
965
90
3
90
985
90
979
90
984
90
3
90
984
90
998
90
985
90
3
90
979
90
978
90
984
90
3
90
979
90
980
90
961
90
3
90
991
90
988
90
982
90
3
90
996
90
981
90
982
90
3
90
995
90
1004
90
988
90
3
90
994
90
995
90
992
90
3
90
993
90
356
90
994
90
3
90
995
90
991
90
992
90
3
90
996
90
1010
90
998
90
3
90
996
90
998
90
984
90
3
90
988
90
1004
90
989
90
3
90
988
90
989
90
982
90
3
90
988
90
991
90
995
90
3
90
989
90
996
90
982
90
3
90
995
90
994
90
1000
90
3
90
996
90
984
90
981
90
3
90
982
90
977
90
991
90
3
90
985
90
998
90
997
90
3
90
348
90
257
90
258
90
3
90
348
90
258
90
347
90
3
90
349
90
348
90
1005
90
3
90
997
90
1005
90
348
90
3
90
348
90
347
90
997
90
3
90
349
90
257
90
348
90
3
90
255
90
251
90
256
90
3
90
349
90
256
90
257
90
3
90
0
90
255
90
252
90
3
90
255
90
0
90
251
90
3
90
255
90
256
90
349
90
3
90
251
90
257
90
256
90
3
90
350
90
255
90
349
90
3
90
257
90
251
90
258
90
3
90
1008
90
1009
90
1007
90
3
90
1006
90
1007
90
997
90
3
90
1006
90
1008
90
1007
90
3
90
1010
90
1006
90
998
90
3
90
1007
90
1005
90
997
90
3
90
1006
90
1010
90
1012
90
3
90
1009
90
349
90
1005
90
3
90
254
90
255
90
350
90
3
90
351
90
254
90
350
90
3
90
1009
90
350
90
349
90
3
90
1009
90
1005
90
1007
90
3
90
1009
90
351
90
350
90
3
90
1010
90
996
90
1011
90
3
90
997
90
998
90
1006
90
3
90
989
90
1011
90
996
90
3
90
254
90
252
90
255
90
3
90
356
90
1001
90
994
90
3
90
250
90
245
90
258
90
3
90
999
90
1004
90
1000
90
3
90
1000
90
1004
90
995
90
3
90
1002
90
999
90
1000
90
3
90
1001
90
1000
90
994
90
3
90
1001
90
356
90
355
90
3
90
1000
90
1001
90
1002
90
3
90
1015
90
1018
90
1012
90
3
90
1012
90
1010
90
1015
90
3
90
990
90
1011
90
989
90
3
90
1010
90
1011
90
1015
90
3
90
990
90
989
90
999
90
3
90
1027
90
1011
90
990
90
3
90
1003
90
1001
90
355
90
3
90
1006
90
1012
90
1008
90
3
90
1003
90
1025
90
1002
90
3
90
1001
90
1003
90
1002
90
3
90
1026
90
1003
90
354
90
3
90
260
90
354
90
355
90
3
90
354
90
1003
90
355
90
3
90
259
90
353
90
354
90
3
90
1026
90
1013
90
1025
90
3
90
1002
90
1025
90
1024
90
3
90
1013
90
1026
90
353
90
3
90
1003
90
1026
90
1025
90
3
90
1026
90
354
90
353
90
3
90
1024
90
1025
90
1013
90
3
90
353
90
262
90
1013
90
3
90
1014
90
999
90
1002
90
3
90
355
90
356
90
234
90
3
90
1024
90
1014
90
1002
90
3
90
1016
90
1008
90
1017
90
3
90
1017
90
1008
90
1012
90
3
90
1016
90
1017
90
1023
90
3
90
1019
90
1017
90
1012
90
3
90
1012
90
1018
90
1019
90
3
90
1017
90
1019
90
1021
90
3
90
253
90
252
90
254
90
3
90
351
90
1016
90
352
90
3
90
352
90
253
90
351
90
3
90
1016
90
351
90
1009
90
3
90
253
90
254
90
351
90
3
90
352
90
252
90
253
90
3
90
1021
90
1019
90
1018
90
3
90
1009
90
1008
90
1016
90
3
90
1027
90
1020
90
1011
90
3
90
1018
90
1015
90
1020
90
3
90
990
90
1014
90
1013
90
3
90
1024
90
1013
90
1014
90
3
90
1011
90
1020
90
1015
90
3
90
1013
90
1027
90
990
90
3
90
252
90
352
90
1022
90
3
90
352
90
1016
90
1022
90
3
90
1017
90
1021
90
1023
90
3
90
1027
90
1021
90
1020
90
3
90
1021
90
1027
90
0
90
3
90
1021
90
0
90
1023
90
3
90
1016
90
1023
90
1022
90
3
90
1023
90
0
90
1022
90
3
90
1013
90
0
90
1027
90
3
90
1018
90
1020
90
1021
90
3
90
990
90
999
90
1014
90
3
90
252
90
1022
90
0
90
3
90
262
90
10
90
1013
90
3
90
1004
90
999
90
989
90
3
90
353
90
259
90
262
90
3
90
0
90
1013
90
10
90
3
90
931
90
934
90
946
90
3
90
238
90
224
90
239
90
3
90
1
90
205
90
0
90
3
90
325
90
170
90
324
90
0
0
VIEWPORT
5
23
330
1F
100
AcDbEntity
67
1
8
0
62
256
6
ByLayer
370
-1
48
1.0
60
0
100
AcDbViewport
10
0.0
20
0.0
30
0.0
40
297.0
41
210.0
68
1
69
1
12
50.0
22
100.0
13
0.0
23
0.0
14
10.0
24
10.0
15
10.0
25
10.0
16
0.0
26
0.0
36
1.0
17
0.0
27
0.0
37
0.0
42
50.0
43
0.0
44
0.0
45
250.0
50
0.0
51
0.0
72
1000
90
819232
110
0.0
120
0.0
130
0.0
111
1.0
121
0.0
131
0.0
112
0.0
122
1.0
132
0.0
0
ENDSEC
0
SECTION
2
OBJECTS
0
DICTIONARY
5
26
330
0
100
AcDbDictionary
280
0
281
1
3
ACAD_GROUP
350
27
3
ACAD_LAYOUT
350
28
3
ACAD_MLINESTYLE
350
29
0
DICTIONARY
5
27
330
26
100
AcDbDictionary
280
0
281
1
0
DICTIONARY
5
28
330
26
100
AcDbDictionary
280
0
281
1
3
Model
350
1B
3
Layout1
350
24
0
DICTIONARY
5
29
330
26
100
AcDbDictionary
280
0
281
1
3
Standard
350
16
0
LAYOUT
5
1B
330
28
100
AcDbPlotSettings
1

2
none_device
4
ISO_A4_(210.00_x_297.00_MM)
6

40
7.5
41
20.0
42
7.5
43
20.0
44
210.0
45
297.0
46
0.0
47
0.0
48
0.0
49
0.0
140
0.0
141
0.0
142
1.0
143
1.0
70
11952
72
1
73
1
74
5
7

75
16
147
1.0
148
0.0
149
0.0
100
AcDbLayout
1
Model
70
1
71
0
10
-20.0
20
-7.5
11
277.0
21
202.5
12
0.0
22
0.0
32
0.0
14
25.7
24
19.5
34
0.0
15
231.3
25
175.5
35
0.0
146
0.0
13
0.0
23
0.0
33
0.0
16
1.0
26
0.0
36
0.0
17
0.0
27
1.0
37
0.0
76
0
330
17
0
LAYOUT
5
24
330
28
100
AcDbPlotSettings
1

2
none_device
4
ISO_A4_(210.00_x_297.00_MM)
6

40
7.5
41
20.0
42
7.5
43
20.0
44
210.0
45
297.0
46
0.0
47
0.0
48
0.0
49
0.0
140
0.0
141
0.0
142
1.0
143
1.0
70
688
72
1
73
1
74
5
7

75
16
147
1.0
148
0.0
149
0.0
100
AcDbLayout
1
Layout1
70
1
71
1
10
-20.0
20
-7.5
11
277.0
21
202.5
12
0.0
22
0.0
32
0.0
14
25.7
24
19.5
34
0.0
15
231.3
25
175.5
35
0.0
146
0.0
13
0.0
23
0.0
33
0.0
16
1.0
26
0.0
36
0.0
17
0.0
27
1.0
37
0.0
76
0
330
1F
0
MLINESTYLE
5
16
330
29
100
AcDbMlineStyle
2
Standard
70
0
3

62
256
51
90.0
52
90.0
71
2
49
0.5
62
256
6
ByLayer
49
-0.5
62
256
6
ByLayer
0
ENDSEC
0
EOF
